<?xml version="1.0" encoding="utf-8"?>
<!-- Generator: Adobe Illustrator 22.0.1, SVG Export Plug-In . SVG Version: 6.00 Build 0)  -->
<svg version="1.1" id="Layer_1" xmlns="http://www.w3.org/2000/svg" xmlns:xlink="http://www.w3.org/1999/xlink" x="0px" y="0px"
	 viewBox="0 0 72 15" style="enable-background:new 0 0 72 15;" xml:space="preserve">
<style type="text/css">
	.st0{enable-background:new    ;}
	.st1{fill:#401B00;}
</style>
<g class="st0">
	<path class="st1" d="M1.6,11.3V0.9h2.2C5,0.9,6,1.4,6.5,2.2c0.6,0.9,0.9,2.2,0.9,3.9S7.1,9.2,6.5,10C6,10.9,5,11.3,3.8,11.3H1.6z
		 M3.7,1.9h-1v8.5h1c0.8,0,1.5-0.3,1.8-1c0.4-0.7,0.6-1.8,0.6-3.3S5.9,3.5,5.5,2.8C5.2,2.2,4.6,1.9,3.7,1.9z"/>
	<path class="st1" d="M11.1,11.5c-1.7,0-2.5-1.4-2.5-4.1s0.8-4.1,2.5-4.1s2.5,1.3,2.5,4C13.6,10.2,12.7,11.5,11.1,11.5z M11.1,10.6
		c0.4,0,0.8-0.2,1-0.7s0.3-1.3,0.3-2.4S12.2,5.5,12,5s-0.5-0.7-1-0.7c-0.4,0-0.8,0.2-1,0.7S9.8,6.3,9.8,7.5c0,1.1,0.1,1.9,0.3,2.4
		S10.6,10.6,11.1,10.6z"/>
	<path class="st1" d="M15.8,11.3l-1.5-7.7h1.2l1,6.3l1.2-6.3h0.9l1.2,6.2l1-6.2h1.1l-1.5,7.7h-1.2l-1.1-5.8L17,11.3H15.8z"/>
	<path class="st1" d="M23,11.3V3.6h1v1c0.2-0.4,0.4-0.6,0.7-0.9c0.3-0.2,0.6-0.3,1-0.3c0.6,0,1,0.2,1.3,0.6s0.5,1,0.5,1.8v5.4h-1.2
		V6c0-1.1-0.3-1.7-1-1.7c-0.4,0-0.7,0.2-0.9,0.6s-0.3,1-0.3,1.7v4.6L23,11.3L23,11.3z"/>
	<path class="st1" d="M29.2,11.3V0.5h1.2v10.9L29.2,11.3L29.2,11.3z"/>
	<path class="st1" d="M34.3,11.5c-1.7,0-2.5-1.4-2.5-4.1s0.8-4.1,2.5-4.1s2.5,1.3,2.5,4C36.8,10.2,36,11.5,34.3,11.5z M34.3,10.6
		c0.4,0,0.8-0.2,1-0.7s0.3-1.3,0.3-2.4s-0.1-2-0.3-2.5s-0.5-0.7-1-0.7c-0.4,0-0.8,0.2-1,0.7S33,6.3,33,7.5c0,1.1,0.1,1.9,0.3,2.4
		S33.9,10.6,34.3,10.6z"/>
	<path class="st1" d="M42.4,11.3h-1l-0.1-1c-0.3,0.8-0.9,1.2-1.7,1.2c-0.5,0-1-0.2-1.3-0.6s-0.5-0.9-0.5-1.5c0-0.8,0.3-1.5,0.9-2
		s1.4-0.8,2.5-0.8V6c0-1.1-0.3-1.7-1-1.7s-1,0.5-1,1.6H38c0-0.8,0.3-1.3,0.7-1.8c0.4-0.4,0.9-0.6,1.6-0.6c1.4,0,2.1,0.9,2.1,2.7
		V11.3z M40,10.6c0.4,0,0.7-0.2,0.9-0.5c0.2-0.4,0.4-0.8,0.4-1.3V7.4c-0.7,0-1.3,0.2-1.6,0.5C39.2,8.3,39,8.7,39,9.3
		C39,10.2,39.3,10.6,40,10.6z"/>
	<path class="st1" d="M45.8,11.5c-0.7,0-1.2-0.4-1.6-1.1s-0.6-1.7-0.6-3s0.2-2.3,0.6-3s0.9-1.1,1.6-1.1s1.2,0.3,1.5,1V0.5h1.2v10.9
		h-1v-1C47.1,11.1,46.6,11.5,45.8,11.5z M46.1,10.6c0.4,0,0.7-0.3,0.9-0.8s0.3-1.2,0.3-2.2V7.3c0-0.9-0.1-1.7-0.3-2.2
		s-0.5-0.7-0.9-0.7c-0.8,0-1.2,1-1.2,3.1S45.3,10.6,46.1,10.6z"/>
	<path class="st1" d="M52,11.3l2.4-10.4h1.4l2.4,10.4H57l-0.5-2.6h-2.7l-0.5,2.6L52,11.3z M54,7.8h2.3l-1.1-5.5L54,7.8z"/>
	<path class="st1" d="M59.4,14.6v-11h1v1c0.4-0.8,0.9-1.2,1.6-1.2s1.2,0.4,1.6,1.1s0.6,1.7,0.6,3s-0.2,2.3-0.6,3s-0.9,1.1-1.6,1.1
		s-1.2-0.3-1.5-1v4.1h-1.1V14.6z M61.8,10.6c0.8,0,1.2-1,1.2-3.1s-0.4-3.1-1.2-3.1c-0.4,0-0.7,0.2-0.9,0.7s-0.3,1.2-0.3,2.2v0.4
		c0,0.9,0.1,1.7,0.3,2.2C61.1,10.3,61.4,10.6,61.8,10.6z"/>
	<path class="st1" d="M65.6,14.6v-11h1v1c0.4-0.8,0.9-1.2,1.6-1.2s1.2,0.4,1.6,1.1s0.6,1.7,0.6,3s-0.2,2.3-0.6,3s-0.9,1.1-1.6,1.1
		s-1.2-0.3-1.5-1v4.1h-1.1V14.6z M68,10.6c0.8,0,1.2-1,1.2-3.1S68.8,4.4,68,4.4c-0.4,0-0.7,0.2-0.9,0.7s-0.3,1.2-0.3,2.2v0.4
		c0,0.9,0.1,1.7,0.3,2.2C67.3,10.3,67.6,10.6,68,10.6z"/>
</g>
</svg>
