<svg id="Layer_1" xmlns="http://www.w3.org/2000/svg" viewBox="0 0 158 57"><style>.st0{fill:#fff}</style><path class="st0" d="M36.8 1.9c-6.3 0-11.4 5.1-11.4 11.4 0 6.3 5.1 11.4 11.4 11.4 6.3 0 11.4-5.1 11.4-11.4 0-6.3-5.1-11.4-11.4-11.4m0 20.6c-5.1 0-9.2-4.1-9.2-9.2s4.1-9.2 9.2-9.2S46 8.2 46 13.3c-.1 5.1-4.2 9.2-9.2 9.2M135.2 13.5c-.6-.3-4.3-2.2-4.9-2.5-2-1-2.6-1.9-2.6-3.4 0-2.1 1.7-3.4 4.4-3.4 1.6 0 3.1.7 3.9 1.2.2.1.4.1.5.1.6 0 1.1-.5 1.1-1.1 0-.4-.2-.7-.6-.9-1.1-.6-3-1.5-5-1.5-3.9 0-6.6 2.3-6.6 5.7 0 3 2 4.4 3.9 5.4.5.3 4.3 2.2 4.9 2.5 1.5.8 2.3 1.9 2.3 3.3 0 1.8-1.5 3.7-4.4 3.7-2.7 0-4.9-1.8-5.5-2.4l-.2-.2-1.7 1.5.2.2c.7.7 3.4 3.1 7.1 3.1 4.1 0 6.6-3 6.6-6 .1-2.2-1.2-4.1-3.4-5.3M13.4 4.2c2.4 0 4.8 1 6.5 2.7.5.4 1.1.4 1.6 0 .4-.4.4-1.1 0-1.6l-.2-.1C16.8.7 9.5.8 5.1 5.4s-4.2 11.7.3 16.1 11.8 4.3 16.1-.3l.2-.2-1.6-1.6c-3.4 3.8-9.2 4.1-12.9.7S3.1 11 6.5 7.2c1.8-1.9 4.3-3 6.9-3M90.7 4.2c2.4 0 4.8 1 6.5 2.7.5.4 1.1.4 1.6 0 .4-.4.5-1.1 0-1.6l-.1-.1C94.2.8 86.9.9 82.6 5.5c-4.4 4.5-4.3 11.8.3 16.1 4.5 4.4 11.8 4.3 16.1-.3l.2-.2-1.6-1.6c-3.4 3.8-9.2 4.1-12.9.7-3.8-3.4-4.1-9.2-.7-12.9 1.6-2 4.1-3.1 6.7-3.1M71.4 1.9c-.4 0-.8.3-.9.6-.2.3-6.7 16.5-6.7 16.5S57.2 2.9 57 2.6c-.2-.4-.5-.6-.9-.6-.5 0-.9.4-1 .8-.1.5-3.8 20.8-3.8 20.8v.2c0 .6.4 1 1 1 .5 0 .9-.3 1-.8l3.2-17.4s6.1 15.2 6.3 15.6c.2.5.8.8 1.3.6.3-.1.5-.3.6-.6L71 6.5l3.3 18.1h2.1s-3.9-21.4-4-21.9c-.1-.4-.5-.8-1-.8M112 1.9c-.4 0-.8.3-1 .6-.2.4-8.5 20.8-8.5 20.8 0 .1-.1.3-.1.4 0 .6.4 1 1 1 .4 0 .8-.3 1-.6l3.2-7.9h8.6l3.4 8.4h2.2s-8.8-21.7-9-22.1c-.1-.3-.4-.6-.8-.6M108.6 14l3.4-8.3 3.4 8.3h-6.8zM156.4 3.2c0-.6-.5-1.1-1.1-1.1h-12.7c-.6 0-1.1.6-1 1.2 0 .6.5 1 1 1h5.3v20.3h2.1V4.3h5.3c.6 0 1.1-.5 1.1-1.1M69.3 33c-1-.1-1.8.7-1.8 1.6V55.8h3.7v-21c0-1-.7-1.7-1.7-1.8h-.2M28.7 46.8v-12c0-1-.8-1.8-1.8-1.8s-1.8.8-1.8 1.8v11.9c0 5.1 3.6 9.3 9.3 9.3s9.3-4.2 9.3-9.3V33.2H40v13.7c0 3-2 5.7-5.7 5.7-3.5 0-5.6-2.7-5.6-5.8M116.4 36.7c1.2 0 1.9-.8 1.9-1.8s-.7-1.8-1.9-1.8h-11.2c-.9 0-1.7.7-1.8 1.6V54c0 1 .7 1.7 1.7 1.8h13.1v-3.6H107v-6.6h8.4c1.3 0 2-.8 2-1.8s-.7-1.8-2-1.8H107v-5.4h9.4zM17.1 43.6c.6-.4 2.3-1.7 2.3-4.7 0-3.5-2.5-5.8-6.3-5.8H5.2c-.9 0-1.7.7-1.8 1.6V55.8h10.1c4.1 0 6.9-3 6.9-6.8 0-4-2.7-5.1-3.3-5.4m-10-6.9h5.5c2.1 0 3.1 1.2 3.1 2.8s-1.1 2.8-3.1 2.8H7.1v-5.6zm5.8 15.7H7.1v-6.8h5.7c2.6 0 3.9 1.5 3.9 3.4 0 1.8-1.3 3.4-3.8 3.4M80.1 33c-1-.1-1.8.7-1.8 1.6v19.5c0 1 .9 1.8 1.9 1.7.9 0 1.7-.8 1.7-1.7v-14s8.9 11.4 11.3 14.4c.6.7 1 1.4 2.1 1.4.9 0 1.7-.7 1.8-1.6V33.2h-3.7v15.7s-9.9-12.7-11.3-14.5c-.6-.8-1.1-1.4-2-1.4M48 52.6c.5.6 2.6 3.4 7.3 3.4 4.6 0 7.8-2.7 7.8-6.4 0-2.4-1-4.4-4.6-6.1-1-.5-3.7-1.8-3.7-1.8-1.4-.7-2.1-1.5-2.1-2.7 0-1.2 1-2.5 3.4-2.5 1 0 2 .2 3 .7.5.2 1 .4 1.5.4.9 0 1.7-.7 1.7-1.6v-.1c0-1-.7-1.5-1.3-1.8-1.6-.8-3.3-1.2-5.1-1.1-4 0-7 2.6-7 6.1 0 3.3 2.2 4.9 4.8 6.1l3 1.4c1.7.8 2.5 1.6 2.5 3 0 1.5-1.4 2.8-3.6 2.8-1.9 0-3.8-.9-5-2.4L48 52.6zM121.9 52.6c.5.6 2.6 3.4 7.3 3.4 4.6 0 7.8-2.7 7.8-6.4 0-2.4-1-4.4-4.6-6.1-1-.5-3.7-1.8-3.7-1.8-1.5-.7-2.1-1.5-2.1-2.7 0-1.2 1-2.5 3.4-2.5 1 0 2 .3 3 .7.5.2 1 .4 1.6.4.9 0 1.7-.7 1.7-1.6v-.1c0-1-.7-1.5-1.3-1.8-1.6-.8-3.3-1.2-5.1-1.1-4 0-7 2.6-7 6.1 0 3.3 2.2 4.9 4.8 6.1l3 1.4c1.6.8 2.5 1.6 2.5 3 0 1.5-1.4 2.8-3.5 2.8-1.9 0-3.8-.9-5-2.4l-2.8 2.6zM140.5 52.6c.5.6 2.6 3.4 7.3 3.4 4.6 0 7.8-2.7 7.8-6.4 0-2.4-1-4.4-4.6-6.1-1-.5-3.7-1.8-3.7-1.8-1.4-.7-2.1-1.5-2.1-2.7 0-1.2 1-2.5 3.4-2.5 1 0 2.1.2 3 .7.5.3 1 .4 1.5.4.9 0 1.7-.7 1.7-1.6v-.1c0-1-.7-1.5-1.3-1.8-1.6-.8-3.3-1.2-5.1-1.1-4 0-7 2.6-7 6.1 0 3.3 2.2 4.9 4.8 6.1l3 1.4c1.7.8 2.5 1.6 2.5 3 0 1.5-1.4 2.8-3.6 2.8-1.9 0-3.8-.9-5-2.4l-2.6 2.6z"/></svg>