<?xml version="1.0" encoding="utf-8"?>
<!-- Generator: Adobe Illustrator 22.0.1, SVG Export Plug-In . SVG Version: 6.00 Build 0)  -->
<svg version="1.1" id="Layer_1" xmlns="http://www.w3.org/2000/svg" xmlns:xlink="http://www.w3.org/1999/xlink" x="0px" y="0px"
	 viewBox="0 0 99 34" style="enable-background:new 0 0 99 34;" xml:space="preserve">
<style type="text/css">
	.st0{fill:#231F20;}
	.st1{fill:#008BCC;}
</style>
<g>
	<g>
		<g>
			<path class="st0" d="M22.3,0c-4,0-7.3,3.3-7.3,7.2c0,4,3.3,7.3,7.3,7.3c4,0,7.3-3.3,7.3-7.3C29.6,3.3,26.3,0,22.3,0z M22.3,13.1
				c-3.2,0-5.9-2.6-5.9-5.8c0-3.2,2.6-5.8,5.9-5.8c3.2,0,5.9,2.6,5.9,5.8C28.2,10.5,25.6,13.1,22.3,13.1z"/>
			<path class="st0" d="M85.4,7.3c-0.4-0.2-2.8-1.4-3.1-1.6c-1.3-0.6-1.7-1.2-1.7-2.1c0-1.3,1.1-2.2,2.8-2.2c1,0,2,0.4,2.5,0.7
				c0.1,0.1,0.2,0.1,0.4,0.1c0.4,0,0.7-0.3,0.7-0.7c0-0.3-0.1-0.5-0.4-0.6C85.9,0.5,84.7,0,83.4,0c-2.5,0-4.2,1.5-4.2,3.6
				c0,1.9,1.3,2.8,2.5,3.4c0.3,0.2,2.8,1.4,3.1,1.6c1,0.5,1.5,1.2,1.5,2.1c0,1.1-1,2.4-2.8,2.4c-1.8,0-3.1-1.2-3.5-1.5l-0.1-0.1
				l-1.1,1l0.1,0.1c0.5,0.5,2.2,2,4.6,2c2.6,0,4.2-1.9,4.2-3.8C87.7,9.3,86.8,8.1,85.4,7.3z"/>
			<path class="st0" d="M7.3,1.4c1.6,0,3,0.6,4.2,1.7c0.3,0.3,0.8,0.3,1,0c0.1-0.1,0.2-0.3,0.2-0.5c0-0.2-0.1-0.4-0.2-0.5L12.4,2
				C11,0.7,9.2,0,7.3,0C3.3,0,0,3.3,0,7.2c0,4,3.3,7.3,7.3,7.3c2.1,0,4-0.9,5.4-2.3l-1-1c-1.1,1.2-2.6,1.9-4.4,1.9
				c-3.2,0-5.9-2.6-5.9-5.8C1.4,4,4.1,1.4,7.3,1.4z"/>
			<path class="st0" d="M56.9,1.4c1.6,0,3,0.6,4.2,1.7c0.3,0.3,0.8,0.3,1,0c0.1-0.1,0.2-0.3,0.2-0.5c0-0.2-0.1-0.4-0.2-0.5L62,2
				c-1.4-1.3-3.2-2-5.1-2c-4,0-7.3,3.3-7.3,7.2c0,4,3.3,7.3,7.3,7.3c2.1,0,4-0.9,5.4-2.3l-1-1c-1.1,1.2-2.6,1.9-4.4,1.9
				c-3.2,0-5.9-2.6-5.9-5.8C51,4,53.7,1.4,56.9,1.4z"/>
			<path class="st0" d="M44.5,0c-0.3,0-0.5,0.2-0.6,0.4c-0.1,0.2-4.3,10.5-4.3,10.5c0,0-4.2-10.3-4.3-10.5C35.2,0.2,35,0,34.7,0
				c-0.3,0-0.6,0.2-0.6,0.5c-0.1,0.3-2.4,13.2-2.4,13.2c0,0,0,0.1,0,0.1c0,0.4,0.3,0.6,0.6,0.6c0.3,0,0.6-0.2,0.6-0.5l2-11
				c0,0,3.9,9.7,4.1,9.9c0.1,0.2,0.3,0.4,0.6,0.4c0.3,0,0.5-0.2,0.6-0.4c0.1-0.2,4.1-9.9,4.1-9.9l2.1,11.5h1.3
				c0,0-2.5-13.6-2.6-13.9C45.1,0.2,44.8,0,44.5,0z"/>
			<path class="st0" d="M70.5,0c-0.3,0-0.5,0.2-0.6,0.4c-0.1,0.2-5.4,13.2-5.4,13.2c0,0.1,0,0.2,0,0.3c0,0.4,0.3,0.6,0.6,0.6
				c0.3,0,0.5-0.2,0.6-0.4l2.1-5h5.5l2.2,5.3h1.4c0,0-5.6-13.8-5.8-14C71,0.2,70.8,0,70.5,0z M68.3,7.6l2.2-5.3l2.2,5.3H68.3z"/>
			<path class="st0" d="M99,0.8c0-0.4-0.3-0.7-0.7-0.7h-8.1c-0.4,0-0.7,0.3-0.7,0.7c0,0.4,0.3,0.7,0.7,0.7h3.4v12.9h1.3V1.5h3.4
				C98.7,1.5,99,1.2,99,0.8z"/>
		</g>
	</g>
</g>
<g>
	<path class="st1" d="M43.3,19.5c-0.7,0-1.2,0.5-1.2,1.1v13.3h2.3V20.6C44.4,20,44,19.5,43.3,19.5"/>
	<path class="st1" d="M16.8,28.2l0-7.6c0-0.6-0.5-1.1-1.2-1.1c-0.7,0-1.2,0.5-1.2,1.1v7.5c0,3.2,2.3,5.8,5.9,5.8
		c3.6,0,5.9-2.6,5.9-5.8l0-8.6H24v8.6c0,1.9-1.3,3.6-3.6,3.6C18.1,31.8,16.8,30.1,16.8,28.2"/>
	<path class="st1" d="M73.3,21.8c0.8,0,1.2-0.5,1.2-1.1c0-0.6-0.5-1.1-1.2-1.1h-7.1c-0.7,0-1.1,0.5-1.1,1.1v12.1
		c0,0.6,0.5,1.1,1.1,1.1h8.3v-2.3h-7.1v-4.2h5.4c0.8,0,1.3-0.5,1.3-1.1c0-0.6-0.4-1.1-1.3-1.1h-5.4v-3.4H73.3z"/>
	<path class="st1" d="M9.4,26.2c0.4-0.2,1.5-1.1,1.5-2.9c0-2.2-1.6-3.6-4-3.6h-5c-0.7,0-1.1,0.5-1.1,1.1v13.2h6.4
		c2.6,0,4.4-1.9,4.4-4.3C11.5,27.1,9.8,26.3,9.4,26.2z M3,21.8h3.5c1.3,0,2,0.8,2,1.7c0,1-0.7,1.7-2,1.7H3V21.8z M6.7,31.7H3v-4.3
		l3.6,0c1.7,0,2.5,1,2.5,2.1C9.2,30.7,8.3,31.7,6.7,31.7"/>
	<path class="st1" d="M50.2,19.5c-0.7,0-1.2,0.5-1.2,1.1v12.3c0,0.6,0.5,1.1,1.2,1.1c0.6,0,1.2-0.5,1.2-1.1V24c0,0,5.7,7.2,7.2,9.1
		c0.4,0.5,0.6,0.9,1.3,0.9c0.7,0,1.1-0.5,1.1-1.1V19.6h-2.3v9.9c0,0-6.3-8-7.2-9.2C51.1,19.8,50.8,19.5,50.2,19.5"/>
	<path class="st1" d="M29.1,31.9c0.3,0.4,1.7,2.1,4.7,2.1c2.9,0,5-1.7,5-4c0-1.5-0.6-2.8-2.9-3.9c-0.6-0.3-2.4-1.1-2.4-1.1
		c-0.9-0.4-1.3-1-1.3-1.7c0-0.8,0.6-1.6,2.1-1.6c0.9,0,1.5,0.3,1.9,0.4c0.2,0.1,0.6,0.3,1,0.3c0.5,0,1.1-0.4,1.1-1.1
		c0-0.6-0.4-0.9-0.8-1.1c-0.6-0.3-1.6-0.7-3.2-0.7c-2.6,0-4.5,1.6-4.5,3.9c0,2.1,1.4,3.1,3.1,3.9c0.3,0.2,1.6,0.7,1.9,0.9
		c1.1,0.5,1.6,1,1.6,1.9c0,1-0.9,1.8-2.3,1.8c-2,0-3-1.3-3.2-1.5L29.1,31.9z"/>
	<path class="st1" d="M76.9,31.9c0.3,0.4,1.7,2.1,4.7,2.1c2.9,0,5-1.7,5-4c0-1.5-0.6-2.8-2.9-3.9C83,25.8,81.2,25,81.2,25
		c-0.9-0.4-1.3-1-1.3-1.7c0-0.8,0.6-1.6,2.2-1.6c0.9,0,1.5,0.3,1.9,0.4c0.2,0.1,0.6,0.3,1,0.3c0.5,0,1.1-0.4,1.1-1.1
		c0-0.6-0.4-0.9-0.8-1.1c-0.6-0.3-1.6-0.7-3.2-0.7c-2.6,0-4.5,1.6-4.5,3.9c0,2.1,1.4,3.1,3.1,3.9c0.3,0.2,1.6,0.7,1.9,0.9
		c1.1,0.5,1.6,1,1.6,1.9c0,1-0.9,1.8-2.3,1.8c-2,0-3-1.3-3.2-1.5L76.9,31.9z"/>
	<path class="st1" d="M88.7,31.9c0.3,0.4,1.7,2.1,4.7,2.1c2.9,0,5-1.7,5-4c0-1.5-0.6-2.8-2.9-3.9C94.8,25.8,93,25,93,25
		c-0.9-0.4-1.3-1-1.3-1.7c0-0.8,0.6-1.6,2.1-1.6c0.9,0,1.5,0.3,1.9,0.4c0.2,0.1,0.6,0.3,1,0.3c0.5,0,1.1-0.4,1.1-1.1
		c0-0.6-0.4-0.9-0.8-1.1c-0.6-0.3-1.6-0.7-3.2-0.7c-2.6,0-4.5,1.6-4.5,3.9c0,2.1,1.4,3.1,3.1,3.9c0.3,0.2,1.6,0.7,1.9,0.9
		c1.1,0.5,1.6,1,1.6,1.9c0,1-0.9,1.8-2.3,1.8c-2,0-3-1.3-3.2-1.5L88.7,31.9z"/>
</g>
</svg>
