<?xml version="1.0" encoding="UTF-8"?>
<svg id="Layer_1" data-name="Layer 1" xmlns="http://www.w3.org/2000/svg" version="1.1" viewBox="0 0 300 250">
  <defs>
    <style>
      .cls-1 {
        fill: #003da3;
        stroke-width: 0px;
      }
    </style>
  </defs>
  <path class="cls-1" d="M192.6,60.6c0,0,.2,0,.2,0,0,0,.1,0,.2.1l1.3,1.3c-.6.7-1.3,1.3-2.1,1.6s-1.8.6-3,.6-2-.2-2.8-.5-1.5-.9-2.1-1.5c-.6-.6-1-1.4-1.3-2.2-.3-.9-.5-1.8-.5-2.8s.2-2,.5-2.8c.3-.9.8-1.6,1.4-2.2.6-.6,1.3-1.1,2.2-1.5.8-.3,1.8-.5,2.8-.5s1,0,1.5.1c.5,0,.9.2,1.3.4.4.2.8.4,1.1.6s.6.5.9.7l-1.1,1.5c0,0-.2.2-.2.2,0,0-.2.1-.4.1s-.2,0-.3,0c-.1,0-.2-.1-.3-.2-.1,0-.2-.2-.4-.2-.1,0-.3-.2-.5-.2-.2,0-.4-.1-.7-.2-.2,0-.5,0-.9,0-.5,0-1,0-1.5.3s-.8.5-1.1.9c-.3.4-.6.8-.7,1.4-.2.5-.3,1.2-.3,1.9s0,1.3.3,1.9c.2.6.5,1,.8,1.4.3.4.7.7,1.2.9.4.2.9.3,1.4.3s.6,0,.8,0c.2,0,.5,0,.7-.1s.4-.2.6-.3c.2-.1.4-.3.6-.4,0,0,.2-.1.2-.2,0,0,.2,0,.3,0Z"/>
  <path class="cls-1" d="M207.5,64.2h-2.9c-.5,0-.9-.2-1.2-.6l-2.3-4c-.1-.2-.2-.3-.4-.4-.1,0-.3-.1-.6-.1h-.8v5.1h-3.2v-13.8h4.5c1,0,1.9.1,2.6.3.7.2,1.3.5,1.7.9.4.4.8.8,1,1.3.2.5.3,1,.3,1.6s0,.9-.2,1.3-.3.8-.5,1.1c-.2.3-.5.6-.9.9-.3.3-.7.5-1.2.7.2.1.4.2.6.4.2.2.3.4.5.6l2.9,4.8ZM200.7,56.9c.4,0,.8,0,1.1-.2.3-.1.6-.3.8-.5s.3-.4.4-.7c0-.3.1-.5.1-.9,0-.6-.2-1.1-.6-1.4-.4-.3-1-.5-1.8-.5h-1.3v4.1h1.3Z"/>
  <path class="cls-1" d="M212.4,52.9v3.2h4.4v2.4h-4.4v3.3h5.7v2.5h-8.9v-13.8h8.9v2.5h-5.7Z"/>
  <path class="cls-1" d="M233.4,64.2h-2.5c-.3,0-.5,0-.7-.2-.2-.1-.3-.3-.4-.5l-.8-2.4h-5.3l-.8,2.4c0,.2-.2.3-.4.5s-.4.2-.7.2h-2.5l5.4-13.8h3.3l5.4,13.8ZM228.3,58.9l-1.3-3.8c0-.2-.2-.5-.3-.9-.1-.3-.2-.7-.3-1.1,0,.4-.2.7-.3,1.1-.1.3-.2.6-.3.9l-1.3,3.8h3.8Z"/>
  <path class="cls-1" d="M243.5,52.9h-3.9v11.3h-3.2v-11.3h-3.9v-2.5h11v2.5Z"/>
  <path class="cls-1" d="M248.6,64.2h-3.2v-13.8h3.2v13.8Z"/>
  <path class="cls-1" d="M263.9,50.4v13.8h-1.7c-.2,0-.5,0-.6-.1-.2,0-.3-.2-.5-.4l-6.5-8.3c0,.2,0,.5,0,.7,0,.2,0,.4,0,.7v7.4h-2.8v-13.8h1.7c.1,0,.3,0,.4,0,0,0,.2,0,.3,0,0,0,.1,0,.2.1,0,0,.1.1.2.3l6.6,8.3c0-.3,0-.5,0-.8,0-.3,0-.5,0-.7v-7.3h2.8Z"/>
  <path class="cls-1" d="M273.8,57.1h4.9v5.8c-.7.5-1.5.9-2.3,1.1-.8.2-1.6.4-2.5.4s-2.2-.2-3.1-.5c-.9-.4-1.7-.9-2.4-1.5s-1.2-1.4-1.5-2.2c-.4-.9-.5-1.8-.5-2.8s.2-2,.5-2.8c.3-.9.8-1.6,1.5-2.2s1.4-1.1,2.3-1.5c.9-.3,1.9-.5,3-.5s1.1,0,1.6.1c.5,0,1,.2,1.4.4.4.2.8.4,1.2.6s.7.5,1,.7l-.9,1.4c-.1.2-.3.4-.6.4-.2,0-.5,0-.7-.2-.3-.2-.5-.3-.7-.4-.2-.1-.5-.2-.7-.3-.2,0-.5-.1-.7-.2-.3,0-.6,0-.9,0-.6,0-1.1.1-1.6.3-.5.2-.9.5-1.2.9s-.6.9-.8,1.4-.3,1.1-.3,1.8.1,1.4.3,2c.2.6.5,1.1.9,1.4.4.4.8.7,1.3.9.5.2,1.1.3,1.7.3s.7,0,1-.1c.3,0,.6-.2.9-.3v-2.1h-1.4c-.2,0-.4,0-.5-.2-.1-.1-.2-.2-.2-.4v-1.8Z"/>
  <path class="cls-1" d="M212.9,70.4c1,0,1.8,0,2.4.3.7.2,1.2.4,1.6.8.4.3.7.7.9,1.2.2.5.3,1,.3,1.5s0,.6-.1.9-.2.6-.4.8c-.2.2-.4.5-.7.7s-.7.4-1.1.5c.9.2,1.6.6,2,1.1.4.5.7,1.1.7,1.9s-.1,1.1-.3,1.6c-.2.5-.6.9-1,1.3-.4.4-1,.7-1.6.9-.6.2-1.4.3-2.2.3h-5.5v-13.8h5.1ZM211.1,72.8v3.4h1.7c.4,0,.7,0,1,0,.3,0,.5-.1.7-.3.2-.1.4-.3.5-.5s.2-.5.2-.8,0-.6-.1-.8c0-.2-.2-.4-.4-.5-.2-.1-.4-.2-.7-.3s-.6,0-.9,0h-1.9ZM213.3,81.8c.4,0,.8,0,1-.2.3-.1.5-.2.6-.4.2-.2.3-.4.3-.6,0-.2,0-.4,0-.7s0-.5,0-.7-.2-.4-.3-.5c-.2-.1-.4-.2-.6-.3-.3,0-.6-.1-1-.1h-2.2v3.4h2.3Z"/>
  <path class="cls-1" d="M224.4,72.9v3.2h4.4v2.4h-4.4v3.3h5.7v2.5h-8.9v-13.8h8.9v2.5h-5.7Z"/>
  <path class="cls-1" d="M242.6,72.9h-3.9v11.3h-3.2v-11.3h-3.9v-2.5h11v2.5Z"/>
  <path class="cls-1" d="M255,72.9h-3.9v11.3h-3.2v-11.3h-3.9v-2.5h11v2.5Z"/>
  <path class="cls-1" d="M260.1,72.9v3.2h4.4v2.4h-4.4v3.3h5.7v2.5h-8.9v-13.8h8.9v2.5h-5.7Z"/>
  <path class="cls-1" d="M279.7,84.2h-2.9c-.5,0-.9-.2-1.2-.6l-2.3-4c-.1-.2-.2-.3-.4-.4-.1,0-.3-.1-.6-.1h-.8v5.1h-3.2v-13.8h4.5c1,0,1.9.1,2.6.3.7.2,1.3.5,1.7.9.4.4.8.8,1,1.3.2.5.3,1,.3,1.6s0,.9-.2,1.3-.3.8-.5,1.1c-.2.3-.5.6-.9.9-.3.3-.7.5-1.2.7.2.1.4.2.6.4.2.2.3.4.5.6l2.9,4.8ZM272.9,76.9c.4,0,.8,0,1.1-.2.3-.1.6-.3.8-.5s.3-.4.4-.7c0-.3.1-.5.1-.9,0-.6-.2-1.1-.6-1.4-.4-.3-1-.5-1.8-.5h-1.3v4.1h1.3Z"/>
  <path class="cls-1" d="M151.9,104.2h-2.5c-.3,0-.5,0-.7-.2-.2-.1-.3-.3-.4-.5l-.8-2.4h-5.3l-.8,2.4c0,.2-.2.3-.4.5-.2.1-.4.2-.7.2h-2.5l5.4-13.8h3.3l5.4,13.8ZM146.8,98.9l-1.3-3.8c0-.2-.2-.5-.3-.9-.1-.3-.2-.7-.3-1.1,0,.4-.2.7-.3,1.1-.1.3-.2.6-.3.9l-1.3,3.8h3.8Z"/>
  <path class="cls-1" d="M161.8,101.7v2.6h-8.3v-13.8h3.2v11.3h5.1Z"/>
  <path class="cls-1" d="M172.2,92.9h-3.9v11.3h-3.2v-11.3h-3.9v-2.5h11v2.5Z"/>
  <path class="cls-1" d="M177.4,92.9v3.2h4.4v2.4h-4.4v3.3h5.7v2.5h-8.9v-13.8h8.9v2.5h-5.7Z"/>
  <path class="cls-1" d="M197,104.2h-2.9c-.5,0-.9-.2-1.2-.6l-2.3-4c-.1-.2-.2-.3-.4-.4-.1,0-.3-.1-.6-.1h-.8v5.1h-3.2v-13.8h4.5c1,0,1.9.1,2.6.3.7.2,1.3.5,1.7.9.4.4.8.8,1,1.3.2.5.3,1,.3,1.6s0,.9-.2,1.3-.3.8-.5,1.1c-.2.3-.5.6-.9.9-.3.3-.7.5-1.2.7.2.1.4.2.6.4.2.2.3.4.5.6l2.9,4.8ZM190.1,96.9c.4,0,.8,0,1.1-.2.3-.1.6-.3.8-.5s.3-.4.4-.7c0-.3.1-.5.1-.9,0-.6-.2-1.1-.6-1.4-.4-.3-1-.5-1.8-.5h-1.3v4.1h1.3Z"/>
  <path class="cls-1" d="M210.7,90.4v13.8h-1.7c-.2,0-.5,0-.6-.1s-.3-.2-.5-.4l-6.5-8.3c0,.2,0,.5,0,.7,0,.2,0,.4,0,.7v7.4h-2.8v-13.8h1.7c.1,0,.3,0,.4,0s.2,0,.3,0c0,0,.1,0,.2.1,0,0,.1.1.2.3l6.6,8.3c0-.3,0-.5,0-.8,0-.3,0-.5,0-.7v-7.3h2.8Z"/>
  <path class="cls-1" d="M226.3,104.2h-2.5c-.3,0-.5,0-.7-.2-.2-.1-.3-.3-.4-.5l-.8-2.4h-5.3l-.8,2.4c0,.2-.2.3-.4.5s-.4.2-.7.2h-2.5l5.4-13.8h3.3l5.4,13.8ZM221.2,98.9l-1.3-3.8c0-.2-.2-.5-.3-.9-.1-.3-.2-.7-.3-1.1,0,.4-.2.7-.3,1.1-.1.3-.2.6-.3.9l-1.3,3.8h3.8Z"/>
  <path class="cls-1" d="M236.5,92.9h-3.9v11.3h-3.2v-11.3h-3.9v-2.5h11v2.5Z"/>
  <path class="cls-1" d="M241.6,104.2h-3.2v-13.8h3.2v13.8Z"/>
  <path class="cls-1" d="M257.2,90.4l-5.5,13.8h-2.9l-5.5-13.8h2.6c.3,0,.5,0,.7.2.2.1.3.3.4.5l2.7,7.4c.1.3.2.7.4,1.1.1.4.2.8.3,1.2,0-.4.2-.8.3-1.2.1-.4.2-.7.4-1.1l2.7-7.4c0-.2.2-.3.4-.5.2-.1.4-.2.7-.2h2.6Z"/>
  <path class="cls-1" d="M262.1,92.9v3.2h4.4v2.4h-4.4v3.3h5.7v2.5h-8.9v-13.8h8.9v2.5h-5.7Z"/>
  <path class="cls-1" d="M278,93.2c0,.2-.2.3-.3.3s-.2.1-.4.1-.3,0-.5-.1c-.2,0-.4-.2-.6-.3-.2-.1-.5-.2-.7-.3s-.6-.1-.9-.1c-.6,0-1,.1-1.3.4-.3.3-.4.6-.4,1s0,.5.3.7c.2.2.4.3.7.5s.6.3,1,.4.7.2,1.1.4c.4.1.8.3,1.1.5.4.2.7.4,1,.7.3.3.5.6.7,1,.2.4.3.9.3,1.5s-.1,1.2-.3,1.8c-.2.6-.5,1-1,1.5-.4.4-.9.7-1.6,1-.6.2-1.3.4-2.1.4s-.9,0-1.3-.1c-.4,0-.9-.2-1.3-.4-.4-.2-.8-.4-1.2-.6-.4-.2-.7-.5-1-.7l1-1.5c0-.1.2-.2.3-.3.1,0,.3-.1.4-.1s.4,0,.6.2c.2.1.4.3.7.4.2.1.5.3.8.4.3.1.7.2,1.1.2s1-.1,1.4-.4c.3-.3.5-.7.5-1.2s0-.6-.3-.8c-.2-.2-.4-.4-.7-.5s-.6-.2-1-.4c-.4-.1-.7-.2-1.1-.3-.4-.1-.8-.3-1.1-.5-.4-.2-.7-.4-1-.7s-.5-.7-.7-1.1c-.2-.4-.3-1-.3-1.6s.1-1,.3-1.5.5-.9.9-1.3c.4-.4.9-.7,1.5-.9.6-.2,1.3-.3,2-.3s.8,0,1.2.1c.4,0,.8.2,1.1.3.4.1.7.3,1,.5s.6.4.8.6l-.8,1.5Z"/>
  <path class="cls-1" d="M201.2,112.9v3.5h4.7v2.5h-4.7v5.4h-3.2v-13.8h8.9v2.5h-5.7Z"/>
  <path class="cls-1" d="M222.4,117.3c0,1-.2,1.9-.5,2.8-.3.9-.8,1.6-1.5,2.2s-1.4,1.1-2.3,1.5c-.9.4-1.9.5-2.9.5s-2.1-.2-2.9-.5c-.9-.4-1.6-.9-2.3-1.5-.6-.6-1.1-1.4-1.5-2.2-.3-.9-.5-1.8-.5-2.8s.2-1.9.5-2.8c.3-.9.8-1.6,1.5-2.2.6-.6,1.4-1.1,2.3-1.5.9-.4,1.9-.5,2.9-.5s2.1.2,2.9.5,1.6.9,2.3,1.5c.6.6,1.1,1.4,1.5,2.2.3.9.5,1.8.5,2.8ZM219.1,117.3c0-.7,0-1.3-.3-1.8-.2-.5-.4-1-.8-1.4-.3-.4-.7-.7-1.2-.9s-1-.3-1.6-.3-1.2.1-1.7.3c-.5.2-.9.5-1.2.9-.3.4-.6.8-.8,1.4-.2.5-.3,1.2-.3,1.8s0,1.3.3,1.9c.2.5.4,1,.8,1.4.3.4.7.7,1.2.9.5.2,1,.3,1.7.3s1.2-.1,1.6-.3c.5-.2.9-.5,1.2-.9.3-.4.6-.8.8-1.4.2-.5.3-1.2.3-1.9Z"/>
  <path class="cls-1" d="M236.2,124.2h-2.9c-.5,0-.9-.2-1.2-.6l-2.3-4c-.1-.2-.2-.3-.4-.4-.1,0-.3-.1-.6-.1h-.8v5.1h-3.2v-13.8h4.5c1,0,1.9.1,2.6.3.7.2,1.3.5,1.7.9.4.4.8.8,1,1.3.2.5.3,1,.3,1.6s0,.9-.2,1.3-.3.8-.5,1.1c-.2.3-.5.6-.9.9-.3.3-.7.5-1.2.7.2.1.4.2.6.4.2.2.3.4.5.6l2.9,4.8ZM229.3,116.9c.4,0,.8,0,1.1-.2.3-.1.6-.3.8-.5s.3-.4.4-.7c0-.3.1-.5.1-.9,0-.6-.2-1.1-.6-1.4-.4-.3-1-.5-1.8-.5h-1.3v4.1h1.3Z"/>
  <path class="cls-1" d="M252.8,112.9h-3.9v11.3h-3.2v-11.3h-3.9v-2.5h11v2.5Z"/>
  <path class="cls-1" d="M266.8,110.4v13.8h-3.2v-5.9h-5.6v5.9h-3.2v-13.8h3.2v5.8h5.6v-5.8h3.2Z"/>
  <path class="cls-1" d="M273.2,112.9v3.2h4.4v2.4h-4.4v3.3h5.7v2.5h-8.9v-13.8h8.9v2.5h-5.7Z"/>
  <path class="cls-1" d="M209.6,130.4l-4.3,13.8h-2.9l-2.6-8.6c0-.1,0-.3-.1-.4,0-.2,0-.3-.1-.5,0,.2,0,.3-.1.5,0,.2,0,.3-.1.4l-2.6,8.6h-2.9l-4.3-13.8h2.7c.3,0,.5,0,.7.2s.3.3.4.5l1.9,7.2c0,.2.1.5.2.7,0,.3.1.5.2.8.1-.6.3-1.1.4-1.6l2.2-7.2c0-.2.2-.3.4-.5.2-.1.4-.2.7-.2h1c.3,0,.5,0,.7.2s.3.3.4.5l2.2,7.2c.2.4.3.9.4,1.5,0-.3.1-.6.2-.8s.1-.5.2-.7l1.9-7.2c0-.2.2-.3.4-.5.2-.1.4-.2.7-.2h2.5Z"/>
  <path class="cls-1" d="M224.6,137.3c0,1-.2,1.9-.5,2.8-.3.9-.8,1.6-1.5,2.2s-1.4,1.1-2.3,1.5c-.9.4-1.9.5-2.9.5s-2.1-.2-2.9-.5c-.9-.4-1.6-.9-2.3-1.5-.6-.6-1.1-1.4-1.5-2.2-.3-.9-.5-1.8-.5-2.8s.2-1.9.5-2.8c.3-.9.8-1.6,1.5-2.2.6-.6,1.4-1.1,2.3-1.5.9-.4,1.9-.5,2.9-.5s2.1.2,2.9.5,1.6.9,2.3,1.5c.6.6,1.1,1.4,1.5,2.2.3.9.5,1.8.5,2.8ZM221.3,137.3c0-.7,0-1.3-.3-1.8-.2-.5-.4-1-.8-1.4-.3-.4-.7-.7-1.2-.9-.5-.2-1-.3-1.6-.3s-1.2.1-1.7.3c-.5.2-.9.5-1.2.9-.3.4-.6.8-.8,1.4-.2.5-.3,1.2-.3,1.8s0,1.3.3,1.9c.2.5.4,1,.8,1.4.3.4.7.7,1.2.9.5.2,1,.3,1.7.3s1.2,0,1.6-.3c.5-.2.9-.5,1.2-.9.3-.4.6-.8.8-1.4.2-.5.3-1.2.3-1.9Z"/>
  <path class="cls-1" d="M238.4,144.2h-2.9c-.5,0-.9-.2-1.2-.6l-2.3-4c-.1-.2-.2-.3-.4-.4-.1,0-.3-.1-.6-.1h-.8v5.1h-3.2v-13.8h4.5c1,0,1.9.1,2.6.3s1.3.5,1.7.9c.4.4.8.8,1,1.3.2.5.3,1,.3,1.6s0,.9-.2,1.3c-.1.4-.3.8-.5,1.1s-.5.6-.9.9c-.3.3-.7.5-1.2.7.2.1.4.2.6.4.2.2.3.4.5.6l2.9,4.8ZM231.6,136.9c.4,0,.8,0,1.1-.2.3-.1.6-.3.8-.5s.3-.4.4-.7c0-.3.1-.5.1-.9,0-.6-.2-1.1-.6-1.4-.4-.3-1-.5-1.8-.5h-1.3v4.1h1.3Z"/>
  <path class="cls-1" d="M248.4,141.7v2.6h-8.3v-13.8h3.2v11.3h5.1Z"/>
  <path class="cls-1" d="M262.8,137.3c0,1-.2,1.9-.5,2.8-.3.8-.8,1.6-1.5,2.2-.6.6-1.4,1.1-2.3,1.4-.9.3-1.9.5-2.9.5h-5.4v-13.8h5.4c1.1,0,2.1.2,2.9.5.9.3,1.6.8,2.3,1.4s1.1,1.3,1.5,2.2c.3.8.5,1.8.5,2.8ZM259.6,137.3c0-.7,0-1.3-.3-1.9-.2-.6-.4-1-.8-1.4-.3-.4-.7-.7-1.2-.9s-1-.3-1.6-.3h-2.1v8.9h2.1c.6,0,1.2-.1,1.6-.3s.9-.5,1.2-.9c.3-.4.6-.9.8-1.4.2-.6.3-1.2.3-1.9Z"/>
  <path class="cls-1" d="M266.9,129.5c.3.5.6,1.1.7,1.7.1.6.1,1.1,0,1.7s-.3,1.1-.6,1.6c-.3.5-.8,1-1.3,1.4l-.9-.6c0,0-.1,0-.2-.2,0,0,0-.1,0-.2,0,0,0-.1,0-.2,0,0,0-.1.1-.2,0,0,.1-.2.2-.3,0-.1.2-.3.2-.5,0-.2.1-.4.2-.6s0-.4,0-.7,0-.5-.1-.7c0-.3-.2-.5-.4-.8-.1-.2-.2-.4-.1-.6,0-.2.2-.3.4-.3l1.8-.7Z"/>
  <path class="cls-1" d="M278,133.2c0,.2-.2.3-.3.3s-.2.1-.4.1-.3,0-.5-.1-.4-.2-.6-.3c-.2-.1-.5-.2-.7-.3s-.6-.1-.9-.1c-.6,0-1,.1-1.3.4-.3.3-.4.6-.4,1s0,.5.3.7c.2.2.4.3.7.5s.6.3,1,.4c.4.1.7.2,1.1.4.4.1.8.3,1.1.5.4.2.7.4,1,.7.3.3.5.6.7,1,.2.4.3.9.3,1.5s-.1,1.2-.3,1.8-.5,1-1,1.5c-.4.4-.9.7-1.6,1s-1.3.4-2.1.4-.9,0-1.3-.1c-.4,0-.9-.2-1.3-.4-.4-.2-.8-.4-1.2-.6-.4-.2-.7-.5-1-.7l1-1.5c0-.1.2-.2.3-.3.1,0,.3-.1.4-.1s.4,0,.6.2.4.3.7.4c.2.1.5.3.8.4.3.1.7.2,1.1.2s1-.1,1.4-.4c.3-.3.5-.7.5-1.2s0-.6-.3-.8c-.2-.2-.4-.4-.7-.5s-.6-.2-1-.4-.7-.2-1.1-.3c-.4-.1-.8-.3-1.1-.5-.4-.2-.7-.4-1-.7-.3-.3-.5-.7-.7-1.1-.2-.4-.3-1-.3-1.6s.1-1,.3-1.5.5-.9.9-1.3c.4-.4.9-.7,1.5-.9s1.3-.3,2-.3.8,0,1.2,0,.8.2,1.1.3c.4.1.7.3,1,.5s.6.4.8.6l-.8,1.5Z"/>
  <path class="cls-1" d="M184.1,162.1v2.1h-7.9v-2.1h2.7v-7c0-.2,0-.4,0-.5,0-.2,0-.4,0-.5l-1.6,1.3c-.1.1-.3.2-.4.2-.1,0-.3,0-.4,0-.1,0-.2,0-.3-.1,0,0-.2-.1-.2-.2l-.9-1.2,4.3-3.6h2.4v11.7h2.3Z"/>
  <path class="cls-1" d="M197.1,150.4c1,0,1.8,0,2.4.3.7.2,1.2.4,1.6.8.4.3.7.7.9,1.2.2.5.3,1,.3,1.5s0,.6-.1.9-.2.6-.4.8c-.2.2-.4.5-.7.7s-.7.4-1.1.5c.9.2,1.6.6,2,1.1.4.5.7,1.1.7,1.9s-.1,1.1-.3,1.6c-.2.5-.6.9-1,1.3-.4.4-1,.7-1.6.9-.6.2-1.4.3-2.2.3h-5.5v-13.8h5.1ZM195.2,152.8v3.4h1.7c.4,0,.7,0,1,0,.3,0,.5-.1.7-.3.2-.1.4-.3.5-.5s.2-.5.2-.8,0-.6-.1-.8c0-.2-.2-.4-.4-.5s-.4-.2-.7-.3c-.3,0-.6,0-.9,0h-1.9ZM197.5,161.8c.4,0,.8,0,1-.2.3-.1.5-.2.6-.4.2-.2.3-.4.3-.6,0-.2,0-.4,0-.7s0-.5,0-.7c0-.2-.2-.4-.3-.5-.2-.1-.4-.2-.6-.3s-.6-.1-1-.1h-2.2v3.4h2.3Z"/>
  <path class="cls-1" d="M208.6,164.2h-3.2v-13.8h3.2v13.8Z"/>
  <path class="cls-1" d="M220.1,161.7v2.6h-8.3v-13.8h3.2v11.3h5.1Z"/>
  <path class="cls-1" d="M230.3,161.7v2.6h-8.3v-13.8h3.2v11.3h5.1Z"/>
  <path class="cls-1" d="M235.5,164.2h-3.2v-13.8h3.2v13.8Z"/>
  <path class="cls-1" d="M252.3,157.3c0,1-.2,1.9-.5,2.8-.3.9-.8,1.6-1.5,2.2-.6.6-1.4,1.1-2.3,1.5-.9.4-1.9.5-2.9.5s-2.1-.2-2.9-.5c-.9-.4-1.6-.9-2.3-1.5s-1.1-1.4-1.5-2.2c-.3-.9-.5-1.8-.5-2.8s.2-1.9.5-2.8c.3-.9.8-1.6,1.5-2.2.6-.6,1.4-1.1,2.3-1.5.9-.4,1.9-.5,2.9-.5s2.1.2,2.9.5c.9.4,1.6.9,2.3,1.5.6.6,1.1,1.4,1.5,2.2.3.9.5,1.8.5,2.8ZM249,157.3c0-.7,0-1.3-.3-1.8-.2-.5-.4-1-.8-1.4-.3-.4-.7-.7-1.2-.9-.5-.2-1-.3-1.6-.3s-1.2.1-1.7.3c-.5.2-.9.5-1.2.9-.3.4-.6.8-.8,1.4-.2.5-.3,1.2-.3,1.8s0,1.3.3,1.9.4,1,.8,1.4c.3.4.7.7,1.2.9.5.2,1,.3,1.7.3s1.2,0,1.6-.3c.5-.2.9-.5,1.2-.9.3-.4.6-.8.8-1.4.2-.5.3-1.2.3-1.9Z"/>
  <path class="cls-1" d="M266.8,150.4v13.8h-1.7c-.2,0-.5,0-.6-.1-.2,0-.3-.2-.5-.4l-6.5-8.3c0,.2,0,.5,0,.7,0,.2,0,.4,0,.7v7.4h-2.8v-13.8h1.7c.1,0,.3,0,.4,0,0,0,.2,0,.3,0s.1,0,.2.1c0,0,.1.1.2.3l6.6,8.3c0-.3,0-.5,0-.8,0-.3,0-.5,0-.7v-7.3h2.8Z"/>
  <path class="cls-1" d="M278.7,158.9h-3.5v3.8h-2.4v-3.8h-3.5v-2.1h3.5v-3.8h2.4v3.8h3.5v2.1Z"/>
  <path class="cls-1" d="M188.2,173.2c0,.2-.2.3-.3.3-.1,0-.2.1-.4.1s-.3,0-.5-.1c-.2,0-.4-.2-.6-.3-.2-.1-.5-.2-.7-.3-.3,0-.6-.1-.9-.1-.6,0-1,.1-1.3.4-.3.3-.4.6-.4,1s0,.5.3.7c.2.2.4.3.7.5s.6.3,1,.4c.4.1.7.2,1.1.4.4.1.8.3,1.1.5.4.2.7.4,1,.7.3.3.5.6.7,1,.2.4.3.9.3,1.5s-.1,1.2-.3,1.8-.5,1-1,1.5c-.4.4-.9.7-1.6,1-.6.2-1.3.4-2.1.4s-.9,0-1.3-.1c-.4,0-.9-.2-1.3-.4-.4-.2-.8-.4-1.2-.6s-.7-.5-1-.7l.9-1.5c0-.1.2-.2.3-.3.1,0,.3-.1.4-.1s.4,0,.6.2.4.3.7.4c.2.1.5.3.8.4s.7.2,1.1.2,1-.1,1.4-.4c.3-.3.5-.7.5-1.2s0-.6-.3-.8c-.2-.2-.4-.4-.7-.5s-.6-.2-1-.4-.7-.2-1.1-.3c-.4-.1-.8-.3-1.1-.5-.4-.2-.7-.4-1-.7-.3-.3-.5-.7-.7-1.1-.2-.4-.3-1-.3-1.6s.1-1,.3-1.5.5-.9.9-1.3c.4-.4.9-.7,1.5-.9s1.3-.3,2-.3.8,0,1.2,0,.8.2,1.1.3.7.3,1,.5.6.4.8.6l-.8,1.5Z"/>
  <path class="cls-1" d="M207.2,170.4v13.8h-2.8v-8c0-.2,0-.4,0-.6,0-.2,0-.4,0-.7l-3.7,7.1c-.1.2-.3.4-.5.5-.2.1-.4.2-.7.2h-.4c-.2,0-.5,0-.7-.2s-.3-.3-.5-.5l-3.7-7.1c0,.2,0,.5,0,.7,0,.2,0,.4,0,.6v8h-2.8v-13.8h2.5c.1,0,.3,0,.4,0,.1,0,.2,0,.3,0,0,0,.2,0,.2.1,0,0,.1.2.2.3l3.6,7c.1.2.2.5.4.8s.2.5.3.8c.1-.3.2-.6.3-.8.1-.3.2-.5.4-.8l3.6-7c0-.1.1-.2.2-.3,0,0,.1-.1.2-.1,0,0,.2,0,.3,0,.1,0,.2,0,.4,0h2.5Z"/>
  <path class="cls-1" d="M224.1,177.3c0,1-.2,1.9-.5,2.8-.3.9-.8,1.6-1.5,2.2-.6.6-1.4,1.1-2.3,1.5-.9.4-1.9.5-2.9.5s-2.1-.2-2.9-.5c-.9-.4-1.6-.9-2.3-1.5s-1.1-1.4-1.5-2.2c-.3-.9-.5-1.8-.5-2.8s.2-1.9.5-2.8c.3-.9.8-1.6,1.5-2.2.6-.6,1.4-1.1,2.3-1.5.9-.4,1.9-.5,2.9-.5s2.1.2,2.9.5c.9.4,1.6.9,2.3,1.5.6.6,1.1,1.4,1.5,2.2.3.9.5,1.8.5,2.8ZM220.8,177.3c0-.7,0-1.3-.3-1.8-.2-.5-.4-1-.8-1.4-.3-.4-.7-.7-1.2-.9-.5-.2-1-.3-1.6-.3s-1.2.1-1.7.3c-.5.2-.9.5-1.2.9-.3.4-.6.8-.8,1.4-.2.5-.3,1.2-.3,1.8s0,1.3.3,1.9.4,1,.8,1.4c.3.4.7.7,1.2.9.5.2,1,.3,1.7.3s1.2,0,1.6-.3c.5-.2.9-.5,1.2-.9.3-.4.6-.8.8-1.4.2-.5.3-1.2.3-1.9Z"/>
  <path class="cls-1" d="M229.7,176h.5c.5,0,.8-.1,1-.4l3.1-4.5c.2-.2.4-.4.6-.5.2,0,.5-.1.8-.1h2.8l-4.1,5.6c-.3.4-.6.7-.9.8.2,0,.5.2.7.4s.4.4.6.6l4.2,6.4h-2.9c-.2,0-.3,0-.5,0s-.2,0-.3-.1c0,0-.2-.1-.2-.2,0,0-.1-.2-.2-.3l-3.1-4.8c-.1-.2-.3-.3-.4-.4-.2,0-.4-.1-.7-.1h-.8v5.9h-3.2v-13.8h3.2v5.6Z"/>
  <path class="cls-1" d="M243.7,172.9v3.2h4.4v2.4h-4.4v3.3h5.7v2.5h-8.9v-13.8h8.9v2.5h-5.7Z"/>
  <path class="cls-1" d="M263.3,184.2h-2.9c-.5,0-.9-.2-1.2-.6l-2.3-4c-.1-.2-.2-.3-.4-.4-.1,0-.3-.1-.6-.1h-.8v5.1h-3.2v-13.8h4.5c1,0,1.9.1,2.6.3s1.3.5,1.7.9c.4.4.8.8,1,1.3.2.5.3,1,.3,1.6s0,.9-.2,1.3c-.1.4-.3.8-.5,1.1s-.5.6-.9.9c-.3.3-.7.5-1.2.7.2.1.4.2.6.4.2.2.3.4.5.6l2.9,4.8ZM256.5,176.9c.4,0,.8,0,1.1-.2.3-.1.6-.3.8-.5s.3-.4.4-.7c0-.3.1-.5.1-.9,0-.6-.2-1.1-.6-1.4-.4-.3-1-.5-1.8-.5h-1.3v4.1h1.3Z"/>
  <path class="cls-1" d="M272.7,173.2c0,.2-.2.3-.3.3s-.2.1-.4.1-.3,0-.5-.1-.4-.2-.6-.3c-.2-.1-.5-.2-.7-.3s-.6-.1-.9-.1c-.6,0-1,.1-1.3.4-.3.3-.4.6-.4,1s0,.5.3.7c.2.2.4.3.7.5s.6.3,1,.4c.4.1.7.2,1.1.4.4.1.8.3,1.1.5.4.2.7.4,1,.7.3.3.5.6.7,1,.2.4.3.9.3,1.5s-.1,1.2-.3,1.8-.5,1-1,1.5c-.4.4-.9.7-1.6,1s-1.3.4-2.1.4-.9,0-1.3-.1c-.4,0-.9-.2-1.3-.4-.4-.2-.8-.4-1.2-.6-.4-.2-.7-.5-1-.7l1-1.5c0-.1.2-.2.3-.3.1,0,.3-.1.4-.1s.4,0,.6.2.4.3.7.4c.2.1.5.3.8.4.3.1.7.2,1.1.2s1-.1,1.4-.4c.3-.3.5-.7.5-1.2s0-.6-.3-.8c-.2-.2-.4-.4-.7-.5s-.6-.2-1-.4-.7-.2-1.1-.3c-.4-.1-.8-.3-1.1-.5-.4-.2-.7-.4-1-.7-.3-.3-.5-.7-.7-1.1-.2-.4-.3-1-.3-1.6s.1-1,.3-1.5.5-.9.9-1.3c.4-.4.9-.7,1.5-.9s1.3-.3,2-.3.8,0,1.2,0,.8.2,1.1.3c.4.1.7.3,1,.5s.6.4.8.6l-.8,1.5Z"/>
  <path class="cls-1" d="M275.6,182.7c0-.2,0-.4.1-.6,0-.2.2-.4.4-.5.1-.1.3-.3.5-.3.2,0,.4-.1.7-.1s.5,0,.7.1c.2,0,.4.2.5.3.2.1.3.3.4.5,0,.2.1.4.1.6s0,.4-.1.6c0,.2-.2.4-.4.5-.2.1-.3.3-.5.3-.2,0-.4.1-.7.1s-.5,0-.7-.1c-.2,0-.4-.2-.5-.3-.1-.1-.3-.3-.4-.5,0-.2-.1-.4-.1-.6Z"/>
</svg>