<?xml version="1.0" encoding="UTF-8"?>
<svg id="Layer_1" data-name="Layer 1" xmlns="http://www.w3.org/2000/svg" version="1.1" viewBox="0 0 300 250">
  <defs>
    <style>
      .cls-1 {
        fill: #003da3;
        stroke-width: 0px;
      }
    </style>
  </defs>
  <g>
    <path class="cls-1" d="M239,65.4l-4.5,14.5h-2.7l-3-9.5c0-.1,0-.3-.1-.4,0-.2,0-.3-.1-.5,0,.2,0,.3-.1.5s0,.3-.1.4l-3,9.5h-2.7l-4.5-14.5h2.5c.3,0,.5,0,.7.2s.3.3.3.5l2.2,8.2c0,.2.1.5.2.7s.1.5.2.8c0-.3.1-.6.2-.8,0-.3.1-.5.2-.7l2.6-8.2c0-.2.2-.3.3-.5s.4-.2.6-.2h.9c.3,0,.5,0,.6.2.2.1.3.3.4.5l2.6,8.2c0,.2.2.4.2.7,0,.2.1.5.2.8,0-.3.1-.5.2-.8s.1-.5.2-.7l2.2-8.2c0-.2.2-.3.3-.5.2-.1.4-.2.7-.2h2.4Z"/>
    <path class="cls-1" d="M243.8,67.7v3.7h4.8v2.3h-4.8v3.8h6.2v2.3h-9.2v-14.5h9.2v2.3h-6.2Z"/>
    <path class="cls-1" d="M253.8,64.4c.3.5.6,1.1.7,1.7.1.6.1,1.2,0,1.7,0,.6-.3,1.1-.6,1.6s-.7,1-1.3,1.4l-.9-.5c0,0-.1-.1-.2-.2,0,0,0-.1,0-.2,0,0,0-.1,0-.2s0-.1,0-.1c.1-.1.3-.4.4-.6.1-.3.2-.6.3-.9s0-.7,0-1.1c0-.4-.2-.8-.5-1.2-.1-.2-.2-.4-.1-.5,0-.2.2-.3.4-.3l1.7-.6Z"/>
    <path class="cls-1" d="M268.4,79.9h-2.7c-.5,0-.9-.2-1.1-.6l-2.8-4.4c-.1-.2-.2-.3-.4-.4s-.3-.1-.6-.1h-1v5.5h-3v-14.5h4.6c1,0,1.9.1,2.6.3.7.2,1.3.5,1.8.9.5.4.8.8,1,1.3.2.5.3,1.1.3,1.7s0,.9-.2,1.4c-.1.4-.3.8-.6,1.2-.3.4-.6.7-1,.9s-.8.5-1.3.7c.2.1.4.2.5.4.2.2.3.3.5.5l3.4,5.2ZM261.4,72.2c.5,0,.9,0,1.3-.2.4-.1.6-.3.9-.5s.4-.5.5-.8.2-.6.2-1c0-.7-.2-1.2-.7-1.6-.5-.4-1.2-.6-2.1-.6h-1.6v4.6h1.5Z"/>
    <path class="cls-1" d="M273,67.7v3.7h4.8v2.3h-4.8v3.8h6.2v2.3h-9.2v-14.5h9.2v2.3h-6.2Z"/>
    <path class="cls-1" d="M176,94.6c0,1.1-.2,2-.5,2.9-.4.9-.9,1.7-1.5,2.3-.6.6-1.4,1.1-2.3,1.5-.9.4-1.9.5-3,.5h-5.6v-14.5h5.6c1.1,0,2.1.2,3,.5s1.7.9,2.3,1.5c.7.6,1.2,1.4,1.5,2.3.4.9.5,1.9.5,2.9ZM172.9,94.6c0-.8-.1-1.4-.3-2-.2-.6-.5-1.1-.9-1.5-.4-.4-.8-.7-1.4-1-.5-.2-1.1-.3-1.8-.3h-2.6v9.8h2.6c.7,0,1.3-.1,1.8-.3.5-.2,1-.5,1.4-1,.4-.4.7-.9.9-1.5.2-.6.3-1.3.3-2.1Z"/>
    <path class="cls-1" d="M181.3,89.7v3.7h4.8v2.3h-4.8v3.8h6.2v2.3h-9.2v-14.5h9.2v2.3h-6.2Z"/>
    <path class="cls-1" d="M198.4,99.4v2.4h-8.6v-14.5h3v12.1h5.6Z"/>
    <path class="cls-1" d="M203.4,101.9h-3v-14.5h3v14.5Z"/>
    <path class="cls-1" d="M219.2,87.4l-5.8,14.5h-2.7l-5.8-14.5h2.4c.3,0,.5,0,.6.2.2.1.3.3.4.5l3.1,8.4c.1.3.2.7.4,1,.1.4.2.8.3,1.2,0-.4.2-.8.3-1.2.1-.4.2-.7.3-1l3.1-8.4c0-.2.2-.3.4-.5s.4-.2.6-.2h2.4Z"/>
    <path class="cls-1" d="M223.6,89.7v3.7h4.8v2.3h-4.8v3.8h6.2v2.3h-9.2v-14.5h9.2v2.3h-6.2Z"/>
    <path class="cls-1" d="M243.7,101.9h-2.7c-.5,0-.9-.2-1.1-.6l-2.8-4.4c-.1-.2-.2-.3-.4-.4s-.3-.1-.6-.1h-1v5.5h-3v-14.5h4.6c1,0,1.9.1,2.6.3.7.2,1.3.5,1.8.9.5.4.8.8,1,1.3.2.5.3,1.1.3,1.7s0,.9-.2,1.4c-.1.4-.3.8-.6,1.2-.3.4-.6.7-1,.9s-.8.5-1.3.7c.2.1.4.2.5.4.2.2.3.3.5.5l3.4,5.2ZM236.7,94.2c.5,0,.9,0,1.3-.2.4-.1.6-.3.9-.5s.4-.5.5-.8.2-.6.2-1c0-.7-.2-1.2-.7-1.6-.5-.4-1.2-.6-2.1-.6h-1.6v4.6h1.5Z"/>
    <path class="cls-1" d="M248.3,101.9h-3v-14.5h3v14.5Z"/>
    <path class="cls-1" d="M263.8,87.4v14.5h-1.5c-.2,0-.4,0-.6-.1-.2,0-.3-.2-.5-.4l-7.2-9.2c0,.2,0,.5,0,.7s0,.4,0,.6v8.4h-2.6v-14.5h1.6c.1,0,.2,0,.3,0,0,0,.2,0,.2,0,0,0,.1,0,.2.1,0,0,.1.1.2.2l7.3,9.2c0-.3,0-.5,0-.7,0-.2,0-.5,0-.7v-8.3h2.7Z"/>
    <path class="cls-1" d="M274,94.5h5v6c-.7.5-1.5.9-2.4,1.2s-1.7.4-2.7.4-2.3-.2-3.2-.6c-1-.4-1.8-.9-2.5-1.5s-1.2-1.4-1.6-2.4c-.4-.9-.6-1.9-.6-3s.2-2.1.5-3c.4-.9.9-1.7,1.5-2.3s1.5-1.2,2.4-1.5c.9-.4,2-.5,3.1-.5s1.2,0,1.7.1c.5,0,1,.2,1.4.4.4.2.8.4,1.2.6.4.2.7.5,1,.8l-.9,1.3c-.1.2-.3.3-.5.4-.2,0-.4,0-.7-.2-.2-.1-.5-.3-.7-.4-.2-.1-.5-.2-.7-.3s-.5-.2-.8-.2c-.3,0-.7,0-1.1,0-.7,0-1.3.1-1.8.3s-1,.6-1.4,1c-.4.4-.7.9-.9,1.5-.2.6-.3,1.3-.3,2s.1,1.5.3,2.1c.2.6.5,1.2,1,1.6s.9.8,1.5,1c.6.2,1.2.3,1.9.3s.9,0,1.3-.1c.4,0,.7-.2,1.1-.4v-2.4h-1.6c-.2,0-.3,0-.5-.2-.1-.1-.2-.2-.2-.4v-1.7Z"/>
    <path class="cls-1" d="M148.7,123.9h-2.3c-.3,0-.5,0-.6-.2-.2-.1-.3-.3-.4-.5l-1-2.8h-5.8l-1,2.8c0,.2-.2.3-.4.5-.2.1-.4.2-.6.2h-2.4l5.7-14.5h3.1l5.7,14.5ZM143.7,118.4l-1.6-4.4c0-.2-.2-.5-.3-.8s-.2-.7-.3-1c0,.4-.2.7-.3,1-.1.3-.2.6-.3.8l-1.6,4.4h4.3Z"/>
    <path class="cls-1" d="M162.2,112.1c0,.2-.2.3-.3.3,0,0-.2.1-.4.1s-.3,0-.5-.2c-.2-.1-.4-.2-.6-.3-.2-.1-.5-.2-.8-.3-.3-.1-.6-.2-1-.2-.7,0-1.2.2-1.6.5-.3.3-.5.7-.5,1.2s0,.6.3.8c.2.2.4.4.8.5.3.2.7.3,1.1.4s.8.3,1.2.4c.4.1.8.3,1.2.5s.7.4,1.1.7c.3.3.6.7.8,1.1.2.4.3.9.3,1.5s-.1,1.3-.3,1.9c-.2.6-.6,1.1-1,1.5s-1,.8-1.6,1c-.6.2-1.4.4-2.2.4s-.9,0-1.4-.1c-.5,0-.9-.2-1.3-.4-.4-.2-.8-.4-1.2-.6-.4-.2-.7-.5-1-.8l.9-1.4c0-.1.2-.2.3-.3.1,0,.2-.1.4-.1s.4,0,.6.2c.2.1.4.3.7.4.3.2.6.3.9.4.3.1.8.2,1.2.2.7,0,1.2-.2,1.6-.5.4-.3.6-.8.6-1.4s0-.7-.3-.9c-.2-.2-.4-.4-.7-.6s-.7-.3-1-.4c-.4-.1-.8-.2-1.2-.4-.4-.1-.8-.3-1.2-.5-.4-.2-.7-.4-1-.7s-.6-.7-.7-1.1c-.2-.5-.3-1-.3-1.7s.1-1.1.3-1.6c.2-.5.5-1,.9-1.3.4-.4.9-.7,1.5-1s1.3-.4,2.1-.4,1.7.1,2.4.4c.7.3,1.4.6,1.9,1.1l-.7,1.4Z"/>
    <path class="cls-1" d="M181.4,109.4v14.5h-2.7v-8.9c0-.2,0-.4,0-.6,0-.2,0-.4,0-.7l-4.2,7.9c-.2.4-.6.7-1,.7h-.4c-.2,0-.4,0-.6-.2s-.3-.3-.4-.5l-4.2-7.9c0,.2,0,.5,0,.7,0,.2,0,.4,0,.6v8.9h-2.6v-14.5h2.3c.1,0,.2,0,.3,0,0,0,.2,0,.3,0,0,0,.1,0,.2.1s.1.2.2.3l4.1,7.7c.1.2.2.5.4.7.1.2.2.5.3.8,0-.3.2-.5.3-.8.1-.3.2-.5.4-.7l4-7.7c0-.1.1-.2.2-.3s.1-.1.2-.1c0,0,.2,0,.3,0,0,0,.2,0,.3,0h2.3Z"/>
    <path class="cls-1" d="M198.5,116.6c0,1.1-.2,2-.5,3-.4.9-.9,1.7-1.5,2.3-.7.7-1.4,1.2-2.3,1.6-.9.4-1.9.6-3,.6s-2.1-.2-3-.6c-.9-.4-1.7-.9-2.3-1.6s-1.2-1.4-1.5-2.3c-.4-.9-.5-1.9-.5-3s.2-2,.5-2.9c.4-.9.9-1.7,1.5-2.3s1.4-1.2,2.3-1.6c.9-.4,1.9-.6,3-.6s2.1.2,3,.6c.9.4,1.7.9,2.3,1.6.6.7,1.2,1.4,1.5,2.4s.5,1.9.5,2.9ZM195.5,116.6c0-.8,0-1.4-.3-2s-.5-1.1-.9-1.5c-.4-.4-.8-.7-1.4-1-.5-.2-1.1-.3-1.8-.3s-1.3.1-1.8.3c-.5.2-1,.5-1.4,1-.4.4-.7.9-.9,1.5s-.3,1.3-.3,2,0,1.5.3,2.1c.2.6.5,1.1.9,1.5.4.4.8.7,1.4,1,.5.2,1.2.3,1.8.3s1.3-.1,1.8-.3c.5-.2,1-.5,1.4-1s.7-.9.9-1.5c.2-.6.3-1.3.3-2.1Z"/>
    <path class="cls-1" d="M203.8,115.4h.6c.5,0,.9-.2,1.1-.5l3.7-4.9c.2-.2.4-.4.6-.5.2,0,.5-.1.8-.1h2.6l-4.6,6c-.3.4-.6.7-.9.8.2,0,.4.2.6.4.2.2.4.3.5.6l4.7,6.8h-2.7c-.2,0-.3,0-.4,0-.1,0-.2,0-.3-.1,0,0-.2-.1-.2-.2,0,0-.1-.2-.2-.2l-3.7-5.2c-.1-.2-.3-.3-.5-.4-.2,0-.4-.1-.7-.1h-.8v6.3h-3v-14.5h3v6Z"/>
    <path class="cls-1" d="M217.8,111.7v3.7h4.8v2.3h-4.8v3.8h6.2v2.3h-9.2v-14.5h9.2v2.3h-6.2Z"/>
    <path class="cls-1" d="M225.9,116.7h5.3v2.3h-5.3v-2.3Z"/>
    <path class="cls-1" d="M236.9,111.7v4h5.2v2.4h-5.2v5.8h-3v-14.5h9.2v2.3h-6.2Z"/>
    <path class="cls-1" d="M256.9,123.9h-2.7c-.5,0-.9-.2-1.1-.6l-2.8-4.4c-.1-.2-.2-.3-.4-.4s-.3-.1-.6-.1h-1v5.5h-3v-14.5h4.6c1,0,1.9.1,2.6.3s1.3.5,1.8.9c.5.4.8.8,1,1.3.2.5.3,1.1.3,1.7s0,.9-.2,1.4c-.1.4-.3.8-.6,1.2-.3.4-.6.7-1,.9s-.8.5-1.3.7c.2.1.4.2.5.4.2.2.3.3.5.5l3.4,5.2ZM249.8,116.2c.5,0,.9,0,1.3-.2.4-.1.6-.3.9-.5s.4-.5.5-.8.2-.6.2-1c0-.7-.2-1.2-.7-1.6-.5-.4-1.2-.6-2.1-.6h-1.6v4.6h1.5Z"/>
    <path class="cls-1" d="M261.4,111.7v3.7h4.8v2.3h-4.8v3.8h6.2v2.3h-9.2v-14.5h9.2v2.3h-6.2Z"/>
    <path class="cls-1" d="M273,111.7v3.7h4.8v2.3h-4.8v3.8h6.2v2.3h-9.2v-14.5h9.2v2.3h-6.2Z"/>
    <path class="cls-1" d="M201.5,133.7v4h5.2v2.4h-5.2v5.8h-3v-14.5h9.2v2.3h-6.2Z"/>
    <path class="cls-1" d="M215.9,143.5c.5,0,.9,0,1.3-.2s.7-.4,1-.7.5-.7.6-1.1c.1-.4.2-.9.2-1.4v-8.6h3v8.6c0,.9-.1,1.7-.4,2.4-.3.7-.7,1.4-1.2,1.9-.5.5-1.2,1-1.9,1.2-.8.3-1.6.5-2.5.5s-1.8-.2-2.6-.5c-.8-.3-1.4-.7-1.9-1.2-.5-.5-.9-1.2-1.2-1.9-.3-.7-.4-1.5-.4-2.4v-8.6h3v8.6c0,.5,0,1,.2,1.4s.3.8.6,1.1c.3.3.6.5,1,.7s.8.2,1.3.2Z"/>
    <path class="cls-1" d="M235.2,133.8h-4.2v12.1h-3v-12.1h-4.2v-2.4h11.5v2.4Z"/>
    <path class="cls-1" d="M243,143.5c.5,0,.9,0,1.3-.2s.7-.4,1-.7.5-.7.6-1.1.2-.9.2-1.4v-8.6h3v8.6c0,.9-.1,1.7-.4,2.4-.3.7-.7,1.4-1.2,1.9-.5.5-1.2,1-1.9,1.2-.8.3-1.6.5-2.5.5s-1.8-.2-2.6-.5-1.4-.7-1.9-1.2c-.5-.5-.9-1.2-1.2-1.9-.3-.7-.4-1.5-.4-2.4v-8.6h3v8.6c0,.5,0,1,.2,1.4.1.4.3.8.6,1.1s.6.5,1,.7c.4.2.8.2,1.3.2Z"/>
    <path class="cls-1" d="M263.6,145.9h-2.7c-.5,0-.9-.2-1.1-.6l-2.8-4.4c-.1-.2-.2-.3-.4-.4s-.3-.1-.6-.1h-1v5.5h-3v-14.5h4.6c1,0,1.9.1,2.6.3s1.3.5,1.8.9c.5.4.8.8,1,1.3.2.5.3,1.1.3,1.7s0,.9-.2,1.4c-.1.4-.3.8-.6,1.2-.3.4-.6.7-1,.9s-.8.5-1.3.7c.2.1.4.2.5.4.2.2.3.3.5.5l3.4,5.2ZM256.6,138.2c.5,0,.9,0,1.3-.2.4-.1.6-.3.9-.5s.4-.5.5-.8.2-.6.2-1c0-.7-.2-1.2-.7-1.6-.5-.4-1.2-.6-2.1-.6h-1.6v4.6h1.5Z"/>
    <path class="cls-1" d="M268.1,133.7v3.7h4.8v2.3h-4.8v3.8h6.2v2.3h-9.2v-14.5h9.2v2.3h-6.2Z"/>
    <path class="cls-1" d="M276.3,148.3c0,0-.1-.1-.2-.2s0-.1,0-.2,0-.1,0-.2c0,0,0-.1.2-.2,0,0,.2-.2.3-.3.1-.1.2-.2.3-.4.1-.1.2-.3.3-.5,0-.2.2-.4.2-.5-.2,0-.4,0-.6-.1s-.3-.2-.5-.3c-.1-.1-.2-.3-.3-.5,0-.2-.1-.4-.1-.6s0-.4.1-.6c0-.2.2-.3.3-.5s.3-.2.5-.3c.2,0,.4-.1.6-.1s.5,0,.7.1.4.2.5.4c.1.2.2.3.3.6,0,.2.1.4.1.7s0,.7-.2,1-.2.7-.5,1.1c-.2.4-.4.7-.7,1.1-.3.3-.6.7-1,1l-.5-.4Z"/>
    <path class="cls-1" d="M219.1,155.8h-4.2v12.1h-3v-12.1h-4.2v-2.4h11.5v2.4Z"/>
    <path class="cls-1" d="M234.6,160.6c0,1.1-.2,2-.5,3-.4.9-.9,1.7-1.5,2.3-.6.7-1.4,1.2-2.3,1.6-.9.4-1.9.6-3,.6s-2.1-.2-3-.6c-.9-.4-1.7-.9-2.3-1.6-.7-.7-1.2-1.4-1.5-2.3-.4-.9-.5-1.9-.5-3s.2-2,.5-2.9.9-1.7,1.5-2.3c.7-.7,1.4-1.2,2.3-1.6.9-.4,1.9-.6,3-.6s2.1.2,3,.6c.9.4,1.7.9,2.3,1.6.7.7,1.2,1.4,1.5,2.4s.5,1.9.5,2.9ZM231.5,160.6c0-.8-.1-1.4-.3-2-.2-.6-.5-1.1-.9-1.5-.4-.4-.8-.7-1.4-1-.5-.2-1.1-.3-1.8-.3s-1.3.1-1.8.3c-.5.2-1,.5-1.4,1-.4.4-.7.9-.9,1.5s-.3,1.3-.3,2,0,1.5.3,2.1c.2.6.5,1.1.9,1.5s.8.7,1.4,1c.5.2,1.2.3,1.8.3s1.3-.1,1.8-.3c.5-.2,1-.5,1.4-1,.4-.4.7-.9.9-1.5.2-.6.3-1.3.3-2.1Z"/>
    <path class="cls-1" d="M249.9,160.6c0,1.1-.2,2-.5,2.9-.4.9-.9,1.7-1.5,2.3-.7.6-1.4,1.1-2.3,1.5-.9.4-1.9.5-3,.5h-5.6v-14.5h5.6c1.1,0,2.1.2,3,.5.9.4,1.7.9,2.3,1.5.6.6,1.2,1.4,1.5,2.3s.5,1.9.5,2.9ZM246.8,160.6c0-.8,0-1.4-.3-2s-.5-1.1-.9-1.5-.8-.7-1.4-1c-.5-.2-1.1-.3-1.8-.3h-2.6v9.8h2.6c.7,0,1.3-.1,1.8-.3.5-.2,1-.5,1.4-1,.4-.4.7-.9.9-1.5.2-.6.3-1.3.3-2.1Z"/>
    <path class="cls-1" d="M264.4,167.9h-2.3c-.3,0-.5,0-.6-.2-.2-.1-.3-.3-.4-.5l-1-2.8h-5.8l-1,2.8c0,.2-.2.3-.4.5-.2.1-.4.2-.6.2h-2.3l5.7-14.5h3.1l5.7,14.5ZM259.3,162.4l-1.6-4.4c0-.2-.2-.5-.3-.8s-.2-.7-.3-1c0,.4-.2.7-.3,1-.1.3-.2.6-.3.8l-1.6,4.4h4.3Z"/>
    <path class="cls-1" d="M270.8,162.3v5.6h-3v-5.6l-5.3-8.9h2.6c.3,0,.5,0,.6.2.2.1.3.3.4.5l2.4,4.6c.2.3.3.6.4.9s.2.5.3.8c0-.3.2-.5.3-.8.1-.3.3-.6.4-.9l2.4-4.6c0-.2.2-.3.4-.5.2-.1.4-.2.6-.2h2.7l-5.3,8.9Z"/>
  </g>
  <path class="cls-1" d="M276,166.5c0-.2,0-.4.1-.6,0-.2.2-.4.3-.5.1-.1.3-.3.5-.3.2,0,.4-.1.6-.1s.4,0,.6.1c.2,0,.4.2.5.3s.3.3.3.5c0,.2.1.4.1.6s0,.4-.1.6c0,.2-.2.4-.3.5s-.3.3-.5.3-.4.1-.6.1-.4,0-.6-.1c-.2,0-.4-.2-.5-.3-.1-.1-.3-.3-.3-.5,0-.2-.1-.4-.1-.6Z"/>
</svg>