<?xml version="1.0" encoding="UTF-8"?>
<svg id="Layer_1" data-name="Layer 1" xmlns="http://www.w3.org/2000/svg" version="1.1" viewBox="0 0 300 250">
  <defs>
    <style>
      .cls-1 {
        fill: #fff;
        stroke-width: 0px;
      }
    </style>
  </defs>
  <path class="cls-1" d="M129.8,148.4v8.7h-.9c-.1,0-.3,0-.4,0s-.2-.1-.3-.2l-4.3-5.5c0,.1,0,.3,0,.4s0,.3,0,.4v5h-1.6v-8.7h.9c0,0,.1,0,.2,0,0,0,.1,0,.1,0,0,0,0,0,.1,0s0,0,.1.1l4.4,5.5c0-.2,0-.3,0-.4s0-.3,0-.4v-5h1.6Z"/>
  <path class="cls-1" d="M133.5,149.8v2.2h2.9v1.4h-2.9v2.3h3.7v1.4h-5.5v-8.7h5.5v1.4h-3.7Z"/>
  <path class="cls-1" d="M144.8,149.8h-2.5v7.3h-1.8v-7.3h-2.5v-1.5h6.9v1.5Z"/>
  <path class="cls-1" d="M155.4,157.1h-1.6c-.3,0-.5-.1-.7-.3l-1.7-2.7c0-.1-.1-.2-.2-.2s-.2,0-.4,0h-.6v3.3h-1.8v-8.7h2.7c.6,0,1.1,0,1.6.2s.8.3,1.1.5c.3.2.5.5.6.8.1.3.2.7.2,1s0,.6-.1.8c0,.3-.2.5-.4.7s-.3.4-.6.6c-.2.2-.5.3-.8.4.1,0,.2.1.3.2.1,0,.2.2.3.3l2,3.1ZM151.2,152.5c.3,0,.5,0,.8-.1s.4-.2.5-.3.2-.3.3-.5c0-.2,0-.4,0-.6,0-.4-.1-.7-.4-1-.3-.2-.7-.3-1.3-.3h-.9v2.8h.9Z"/>
  <path class="cls-1" d="M158.1,149.8v2.2h2.9v1.4h-2.9v2.3h3.7v1.4h-5.5v-8.7h5.5v1.4h-3.7Z"/>
  <path class="cls-1" d="M170.8,148.4l-3.5,8.7h-1.6l-3.5-8.7h1.5c.2,0,.3,0,.4.1,0,0,.2.2.2.3l1.9,5c0,.2.1.4.2.6,0,.2.1.5.2.7,0-.2.1-.5.2-.7,0-.2.1-.4.2-.6l1.9-5c0,0,.1-.2.2-.3.1,0,.2-.1.4-.1h1.5Z"/>
  <path class="cls-1" d="M173.5,149.8v2.2h2.9v1.4h-2.9v2.3h3.7v1.4h-5.5v-8.7h5.5v1.4h-3.7Z"/>
  <path class="cls-1" d="M186.1,148.4v8.7h-.9c-.1,0-.3,0-.4,0s-.2-.1-.3-.2l-4.3-5.5c0,.1,0,.3,0,.4s0,.3,0,.4v5h-1.6v-8.7h.9c0,0,.1,0,.2,0,0,0,.1,0,.1,0,0,0,0,0,.1,0s0,0,.1.1l4.4,5.5c0-.2,0-.3,0-.4s0-.3,0-.4v-5h1.6Z"/>
  <path class="cls-1" d="M191.5,155.7c.3,0,.6,0,.8-.1.2,0,.4-.2.6-.4.2-.2.3-.4.4-.7s.1-.5.1-.9v-5.2h1.8v5.2c0,.5,0,1-.3,1.5-.2.4-.4.8-.7,1.1-.3.3-.7.6-1.2.8-.5.2-1,.3-1.5.3s-1.1,0-1.5-.3c-.5-.2-.8-.4-1.2-.8-.3-.3-.6-.7-.7-1.1-.2-.4-.3-.9-.3-1.5v-5.2h1.8v5.2c0,.3,0,.6.1.9s.2.5.4.7c.2.2.4.3.6.4.2,0,.5.1.8.1Z"/>
  <path class="cls-1" d="M198.8,149.8v2.2h2.9v1.4h-2.9v2.3h3.7v1.4h-5.5v-8.7h5.5v1.4h-3.7Z"/>
  <path class="cls-1" d="M208.6,150.1c0,0-.1.2-.2.2s-.1,0-.2,0-.2,0-.3,0c-.1,0-.2-.1-.4-.2s-.3-.1-.5-.2c-.2,0-.4,0-.6,0-.4,0-.7,0-.9.3-.2.2-.3.4-.3.7s0,.4.2.5c.1.1.3.2.5.3.2,0,.4.2.6.2.2,0,.5.2.7.2s.5.2.7.3c.2.1.4.3.6.4.2.2.3.4.5.6.1.3.2.6.2.9s0,.8-.2,1.1c-.1.3-.3.6-.6.9s-.6.5-1,.6c-.4.1-.8.2-1.3.2s-.6,0-.8,0c-.3,0-.5-.1-.8-.2-.3,0-.5-.2-.7-.4-.2-.1-.4-.3-.6-.5l.5-.9c0,0,.1-.1.2-.2,0,0,.1,0,.2,0s.2,0,.3.1.3.2.4.3.3.2.5.3.5.1.7.1c.4,0,.7,0,1-.3.2-.2.3-.5.3-.9s0-.4-.2-.5c-.1-.1-.3-.2-.4-.3-.2,0-.4-.2-.6-.2-.2,0-.5-.1-.7-.2s-.5-.2-.7-.3c-.2-.1-.4-.3-.6-.4-.2-.2-.3-.4-.4-.7-.1-.3-.2-.6-.2-1s0-.6.2-.9.3-.6.6-.8c.2-.2.6-.4.9-.6.4-.1.8-.2,1.2-.2s1,0,1.5.2c.4.2.8.4,1.1.7l-.4.8Z"/>
  <path class="cls-1" d="M215.3,149.8v2.4h3.1v1.4h-3.1v3.5h-1.8v-8.7h5.5v1.4h-3.7Z"/>
  <path class="cls-1" d="M227.2,157.1h-1.6c-.3,0-.5-.1-.7-.3l-1.7-2.7c0-.1-.1-.2-.2-.2s-.2,0-.4,0h-.6v3.3h-1.8v-8.7h2.7c.6,0,1.1,0,1.6.2s.8.3,1.1.5c.3.2.5.5.6.8.1.3.2.7.2,1s0,.6-.1.8c0,.3-.2.5-.4.7s-.3.4-.6.6c-.2.2-.5.3-.8.4.1,0,.2.1.3.2.1,0,.2.2.3.3l2,3.1ZM223,152.5c.3,0,.5,0,.8-.1s.4-.2.5-.3.2-.3.3-.5c0-.2,0-.4,0-.6,0-.4-.1-.7-.4-1-.3-.2-.7-.3-1.3-.3h-.9v2.8h.9Z"/>
  <path class="cls-1" d="M236.4,152.7c0,.6-.1,1.2-.3,1.8s-.5,1-.9,1.4c-.4.4-.9.7-1.4.9-.5.2-1.2.3-1.8.3s-1.3-.1-1.8-.3-1-.5-1.4-.9c-.4-.4-.7-.9-.9-1.4s-.3-1.1-.3-1.8.1-1.2.3-1.8.5-1,.9-1.4c.4-.4.9-.7,1.4-.9.5-.2,1.2-.3,1.8-.3s1.3.1,1.8.3c.5.2,1,.5,1.4.9.4.4.7.9.9,1.4s.3,1.1.3,1.8ZM234.6,152.7c0-.5,0-.9-.2-1.2s-.3-.7-.5-.9c-.2-.3-.5-.4-.8-.6-.3-.1-.7-.2-1.1-.2s-.8,0-1.1.2c-.3.1-.6.3-.8.6-.2.3-.4.6-.5.9s-.2.8-.2,1.2,0,.9.2,1.2.3.7.5.9c.2.3.5.4.8.6.3.1.7.2,1.1.2s.8,0,1.1-.2.6-.3.8-.6c.2-.3.4-.6.5-.9s.2-.8.2-1.2Z"/>
  <path class="cls-1" d="M247.4,148.4v8.7h-1.6v-5.3c0-.1,0-.2,0-.4s0-.3,0-.4l-2.5,4.7c-.1.3-.3.4-.6.4h-.3c-.1,0-.3,0-.4,0-.1,0-.2-.2-.3-.3l-2.5-4.7c0,.1,0,.3,0,.4s0,.3,0,.4v5.3h-1.6v-8.7h1.4c0,0,.1,0,.2,0,0,0,.1,0,.2,0,0,0,0,0,.1,0s0,0,.1.2l2.4,4.6c0,.1.1.3.2.4,0,.1.1.3.2.5,0-.2.1-.3.2-.5,0-.2.1-.3.2-.4l2.4-4.6c0,0,0-.1.1-.2s0,0,.1,0c0,0,0,0,.2,0,0,0,.1,0,.2,0h1.4Z"/>
  <path class="cls-1" d="M115,164.1c0,0-.1.2-.2.2s-.1,0-.2,0-.2,0-.3,0c-.1,0-.2-.1-.4-.2s-.3-.1-.5-.2c-.2,0-.4,0-.6,0-.4,0-.7,0-.9.3-.2.2-.3.4-.3.7s0,.4.2.5c.1.1.3.2.5.3.2,0,.4.2.6.2.2,0,.5.2.7.2s.5.2.7.3c.2.1.4.3.6.4.2.2.3.4.5.6.1.3.2.6.2.9s0,.8-.2,1.1c-.1.3-.3.6-.6.9s-.6.5-1,.6c-.4.1-.8.2-1.3.2s-.6,0-.8,0c-.3,0-.5-.1-.8-.2-.3,0-.5-.2-.7-.4-.2-.1-.4-.3-.6-.5l.5-.9c0,0,.1-.1.2-.2,0,0,.1,0,.2,0s.2,0,.3.1.3.2.4.3.3.2.5.3.5.1.7.1c.4,0,.7,0,1-.3.2-.2.3-.5.3-.9s0-.4-.2-.5c-.1-.1-.3-.2-.4-.3-.2,0-.4-.2-.6-.2-.2,0-.5-.1-.7-.2s-.5-.2-.7-.3c-.2-.1-.4-.3-.6-.4-.2-.2-.3-.4-.4-.7-.1-.3-.2-.6-.2-1s0-.6.2-.9.3-.6.6-.8c.2-.2.6-.4.9-.6.4-.1.8-.2,1.2-.2s1,0,1.5.2c.4.2.8.4,1.1.7l-.4.8Z"/>
  <path class="cls-1" d="M126.5,162.4v8.7h-1.6v-5.3c0-.1,0-.2,0-.4s0-.3,0-.4l-2.5,4.7c-.1.3-.3.4-.6.4h-.3c-.1,0-.3,0-.4,0-.1,0-.2-.2-.3-.3l-2.5-4.7c0,.1,0,.3,0,.4s0,.3,0,.4v5.3h-1.6v-8.7h1.4c0,0,.1,0,.2,0,0,0,.1,0,.2,0,0,0,0,0,.1,0s0,0,.1.2l2.4,4.6c0,.1.1.3.2.4,0,.1.1.3.2.5,0-.2.1-.3.2-.5,0-.2.1-.3.2-.4l2.4-4.6c0,0,0-.1.1-.2s0,0,.1,0c0,0,0,0,.2,0,0,0,.1,0,.2,0h1.4Z"/>
  <path class="cls-1" d="M136.8,166.7c0,.6-.1,1.2-.3,1.8s-.5,1-.9,1.4c-.4.4-.9.7-1.4.9-.5.2-1.2.3-1.8.3s-1.3-.1-1.8-.3-1-.5-1.4-.9c-.4-.4-.7-.9-.9-1.4s-.3-1.1-.3-1.8.1-1.2.3-1.8.5-1,.9-1.4c.4-.4.9-.7,1.4-.9.5-.2,1.2-.3,1.8-.3s1.3.1,1.8.3c.5.2,1,.5,1.4.9.4.4.7.9.9,1.4s.3,1.1.3,1.8ZM134.9,166.7c0-.5,0-.9-.2-1.2s-.3-.7-.5-.9c-.2-.3-.5-.4-.8-.6-.3-.1-.7-.2-1.1-.2s-.8,0-1.1.2c-.3.1-.6.3-.8.6-.2.3-.4.6-.5.9s-.2.8-.2,1.2,0,.9.2,1.2.3.7.5.9c.2.3.5.4.8.6.3.1.7.2,1.1.2s.8,0,1.1-.2.6-.3.8-.6c.2-.3.4-.6.5-.9s.2-.8.2-1.2Z"/>
  <path class="cls-1" d="M139.9,166h.4c.3,0,.5,0,.6-.3l2.2-2.9c.1-.1.2-.2.3-.3.1,0,.3,0,.5,0h1.6l-2.8,3.6c-.2.2-.4.4-.6.5.1,0,.3.1.4.2.1,0,.2.2.3.4l2.8,4.1h-1.6c-.1,0-.2,0-.3,0,0,0-.1,0-.2,0,0,0-.1,0-.1-.1s0,0-.1-.1l-2.2-3.1c0-.1-.2-.2-.3-.2-.1,0-.2,0-.4,0h-.5v3.8h-1.8v-8.7h1.8v3.6Z"/>
  <path class="cls-1" d="M148.3,163.8v2.2h2.9v1.4h-2.9v2.3h3.7v1.4h-5.5v-8.7h5.5v1.4h-3.7Z"/>
  <path class="cls-1" d="M153.2,166.8h3.2v1.4h-3.2v-1.4Z"/>
  <path class="cls-1" d="M159.8,163.8v2.4h3.1v1.4h-3.1v3.5h-1.8v-8.7h5.5v1.4h-3.7Z"/>
  <path class="cls-1" d="M171.8,171.1h-1.6c-.3,0-.5-.1-.7-.3l-1.7-2.7c0-.1-.1-.2-.2-.2s-.2,0-.4,0h-.6v3.3h-1.8v-8.7h2.7c.6,0,1.1,0,1.6.2s.8.3,1.1.5c.3.2.5.5.6.8.1.3.2.7.2,1s0,.6-.1.8c0,.3-.2.5-.4.7s-.3.4-.6.6c-.2.2-.5.3-.8.4.1,0,.2.1.3.2.1,0,.2.2.3.3l2,3.1ZM167.6,166.5c.3,0,.5,0,.8-.1s.4-.2.5-.3.2-.3.3-.5c0-.2,0-.4,0-.6,0-.4-.1-.7-.4-1-.3-.2-.7-.3-1.3-.3h-.9v2.8h.9Z"/>
  <path class="cls-1" d="M174.5,163.8v2.2h2.9v1.4h-2.9v2.3h3.7v1.4h-5.5v-8.7h5.5v1.4h-3.7Z"/>
  <path class="cls-1" d="M181.4,163.8v2.2h2.9v1.4h-2.9v2.3h3.7v1.4h-5.5v-8.7h5.5v1.4h-3.7Z"/>
  <path class="cls-1" d="M192.5,162.4c.6,0,1.1,0,1.5.2.4.1.8.3,1,.5.3.2.5.4.6.7s.2.6.2,1,0,.4,0,.6c0,.2-.1.4-.3.5s-.3.3-.5.4c-.2.1-.4.2-.7.3.6.1,1,.4,1.3.7.3.3.4.7.4,1.2s0,.7-.2,1c-.1.3-.3.6-.6.8-.3.2-.6.4-1,.5-.4.1-.9.2-1.4.2h-3.4v-8.7h3.1ZM191.3,163.8v2.4h1.2c.3,0,.5,0,.7,0,.2,0,.4-.1.5-.2.1,0,.2-.2.3-.4,0-.2.1-.3.1-.5s0-.4,0-.6c0-.2-.1-.3-.3-.4s-.3-.2-.5-.2c-.2,0-.4,0-.7,0h-1.3ZM192.8,169.7c.3,0,.5,0,.7-.1.2,0,.3-.2.4-.3.1-.1.2-.2.2-.4,0-.2,0-.3,0-.5s0-.3,0-.5c0-.1-.1-.3-.3-.4-.1,0-.3-.2-.5-.2-.2,0-.4,0-.7,0h-1.5v2.4h1.5Z"/>
  <path class="cls-1" d="M201,169.7c.3,0,.6,0,.8-.1.2,0,.4-.2.6-.4.2-.2.3-.4.4-.7s.1-.5.1-.9v-5.2h1.8v5.2c0,.5,0,1-.3,1.5-.2.4-.4.8-.7,1.1-.3.3-.7.6-1.2.8-.5.2-1,.3-1.5.3s-1.1,0-1.5-.3c-.5-.2-.8-.4-1.2-.8-.3-.3-.6-.7-.7-1.1-.2-.4-.3-.9-.3-1.5v-5.2h1.8v5.2c0,.3,0,.6.1.9s.2.5.4.7c.2.2.4.3.6.4.2,0,.5.1.8.1Z"/>
  <path class="cls-1" d="M211.2,164.1c0,0-.1.2-.2.2s-.1,0-.2,0-.2,0-.3,0c-.1,0-.2-.1-.4-.2s-.3-.1-.5-.2c-.2,0-.4,0-.6,0-.4,0-.7,0-.9.3-.2.2-.3.4-.3.7s0,.4.2.5c.1.1.3.2.5.3.2,0,.4.2.6.2.2,0,.5.2.7.2s.5.2.7.3c.2.1.4.3.6.4.2.2.3.4.5.6.1.3.2.6.2.9s0,.8-.2,1.1c-.1.3-.3.6-.6.9s-.6.5-1,.6c-.4.1-.8.2-1.3.2s-.6,0-.8,0c-.3,0-.5-.1-.8-.2-.3,0-.5-.2-.7-.4-.2-.1-.4-.3-.6-.5l.5-.9c0,0,.1-.1.2-.2,0,0,.1,0,.2,0s.2,0,.3.1.3.2.4.3.3.2.5.3.5.1.7.1c.4,0,.7,0,1-.3.2-.2.3-.5.3-.9s0-.4-.2-.5c-.1-.1-.3-.2-.4-.3-.2,0-.4-.2-.6-.2-.2,0-.5-.1-.7-.2s-.5-.2-.7-.3c-.2-.1-.4-.3-.6-.4-.2-.2-.3-.4-.4-.7-.1-.3-.2-.6-.2-1s0-.6.2-.9.3-.6.6-.8c.2-.2.6-.4.9-.6.4-.1.8-.2,1.2-.2s1,0,1.5.2c.4.2.8.4,1.1.7l-.4.8Z"/>
  <path class="cls-1" d="M214.9,171.1h-1.8v-8.7h1.8v8.7Z"/>
  <path class="cls-1" d="M224.3,162.4v8.7h-.9c-.1,0-.3,0-.4,0s-.2-.1-.3-.2l-4.3-5.5c0,.1,0,.3,0,.4s0,.3,0,.4v5h-1.6v-8.7h.9c0,0,.1,0,.2,0,0,0,.1,0,.1,0,0,0,0,0,.1,0s0,0,.1.1l4.4,5.5c0-.2,0-.3,0-.4s0-.3,0-.4v-5h1.6Z"/>
  <path class="cls-1" d="M227.9,163.8v2.2h2.9v1.4h-2.9v2.3h3.7v1.4h-5.5v-8.7h5.5v1.4h-3.7Z"/>
  <path class="cls-1" d="M237.8,164.1c0,0-.1.2-.2.2s-.1,0-.2,0-.2,0-.3,0c-.1,0-.2-.1-.4-.2s-.3-.1-.5-.2c-.2,0-.4,0-.6,0-.4,0-.7,0-.9.3-.2.2-.3.4-.3.7s0,.4.2.5c.1.1.3.2.5.3.2,0,.4.2.6.2.2,0,.5.2.7.2s.5.2.7.3c.2.1.4.3.6.4.2.2.3.4.5.6.1.3.2.6.2.9s0,.8-.2,1.1c-.1.3-.3.6-.6.9s-.6.5-1,.6c-.4.1-.8.2-1.3.2s-.6,0-.8,0c-.3,0-.5-.1-.8-.2-.3,0-.5-.2-.7-.4-.2-.1-.4-.3-.6-.5l.5-.9c0,0,.1-.1.2-.2,0,0,.1,0,.2,0s.2,0,.3.1.3.2.4.3.3.2.5.3.5.1.7.1c.4,0,.7,0,1-.3.2-.2.3-.5.3-.9s0-.4-.2-.5c-.1-.1-.3-.2-.4-.3-.2,0-.4-.2-.6-.2-.2,0-.5-.1-.7-.2s-.5-.2-.7-.3c-.2-.1-.4-.3-.6-.4-.2-.2-.3-.4-.4-.7-.1-.3-.2-.6-.2-1s0-.6.2-.9.3-.6.6-.8c.2-.2.6-.4.9-.6.4-.1.8-.2,1.2-.2s1,0,1.5.2c.4.2.8.4,1.1.7l-.4.8Z"/>
  <path class="cls-1" d="M244.4,164.1c0,0-.1.2-.2.2s-.1,0-.2,0-.2,0-.3,0c-.1,0-.2-.1-.4-.2s-.3-.1-.5-.2c-.2,0-.4,0-.6,0-.4,0-.7,0-.9.3-.2.2-.3.4-.3.7s0,.4.2.5c.1.1.3.2.5.3.2,0,.4.2.6.2.2,0,.5.2.7.2s.5.2.7.3c.2.1.4.3.6.4.2.2.3.4.5.6.1.3.2.6.2.9s0,.8-.2,1.1c-.1.3-.3.6-.6.9s-.6.5-1,.6c-.4.1-.8.2-1.3.2s-.6,0-.8,0c-.3,0-.5-.1-.8-.2-.3,0-.5-.2-.7-.4-.2-.1-.4-.3-.6-.5l.5-.9c0,0,.1-.1.2-.2,0,0,.1,0,.2,0s.2,0,.3.1.3.2.4.3.3.2.5.3.5.1.7.1c.4,0,.7,0,1-.3.2-.2.3-.5.3-.9s0-.4-.2-.5c-.1-.1-.3-.2-.4-.3-.2,0-.4-.2-.6-.2-.2,0-.5-.1-.7-.2s-.5-.2-.7-.3c-.2-.1-.4-.3-.6-.4-.2-.2-.3-.4-.4-.7-.1-.3-.2-.6-.2-1s0-.6.2-.9.3-.6.6-.8c.2-.2.6-.4.9-.6.4-.1.8-.2,1.2-.2s1,0,1.5.2c.4.2.8.4,1.1.7l-.4.8Z"/>
  <path class="cls-1" d="M245.9,170.2c0-.1,0-.3,0-.4,0-.1.1-.2.2-.3,0,0,.2-.2.3-.2.1,0,.2,0,.4,0s.3,0,.4,0c.1,0,.2.1.3.2,0,0,.2.2.2.3s0,.2,0,.4,0,.3,0,.4-.1.2-.2.3-.2.2-.3.2c-.1,0-.2,0-.4,0s-.3,0-.4,0-.2-.1-.3-.2c0,0-.2-.2-.2-.3,0-.1,0-.2,0-.4Z"/>
</svg>