<?xml version="1.0" encoding="UTF-8"?>
<svg id="Layer_1" data-name="Layer 1" xmlns="http://www.w3.org/2000/svg" version="1.1" viewBox="0 0 300 250">
  <defs>
    <style>
      .cls-1 {
        fill: #003da3;
      }

      .cls-1, .cls-2 {
        stroke-width: 0px;
      }

      .cls-2 {
        fill: #fff;
      }
    </style>
  </defs>
  <rect class="cls-1" x="20" y="197.6" width="142.7" height="31.8"/>
  <g>
    <path class="cls-2" d="M31.7,211.5c0,0-.1.2-.2.2s-.1,0-.2,0-.2,0-.3,0c-.1,0-.2-.1-.4-.2-.1,0-.3-.1-.5-.2-.2,0-.4,0-.6,0-.4,0-.7,0-.9.3s-.3.4-.3.7,0,.4.2.5c.1.1.3.2.5.3s.4.2.6.2c.2,0,.5.2.7.2.2,0,.5.2.7.3s.4.3.6.4c.2.2.3.4.4.6.1.3.2.6.2.9s0,.8-.2,1.1c-.1.3-.3.6-.6.9-.3.3-.6.5-1,.6-.4.1-.8.2-1.3.2s-.6,0-.8,0c-.3,0-.5-.1-.8-.2-.3-.1-.5-.2-.7-.4s-.4-.3-.6-.5l.5-.9c0,0,.1-.1.2-.2,0,0,.1,0,.2,0s.2,0,.3.1.3.2.4.3c.2,0,.3.2.5.3s.5.1.7.1c.4,0,.7,0,1-.3.2-.2.3-.5.3-.9s0-.4-.2-.5c-.1-.1-.3-.2-.4-.3s-.4-.2-.6-.2c-.2,0-.5-.1-.7-.2s-.5-.2-.7-.3c-.2-.1-.4-.3-.6-.4-.2-.2-.3-.4-.4-.7-.1-.3-.2-.6-.2-1s0-.6.2-.9c.1-.3.3-.6.6-.8.2-.2.6-.4.9-.6.4-.1.8-.2,1.2-.2s1,0,1.5.2c.4.2.8.4,1.1.7l-.4.8Z"/>
    <path class="cls-2" d="M35.5,211.3v2.2h2.9v1.4h-2.9v2.3h3.7v1.4h-5.5v-8.7h5.5v1.4h-3.7Z"/>
    <path class="cls-2" d="M42.5,211.3v2.2h2.9v1.4h-2.9v2.3h3.7v1.4h-5.5v-8.7h5.5v1.4h-3.7Z"/>
    <path class="cls-2" d="M59.1,214.2c0,.6-.1,1.2-.3,1.8s-.5,1-.9,1.4c-.4.4-.9.7-1.4.9-.5.2-1.2.3-1.8.3s-1.3-.1-1.8-.3c-.5-.2-1-.5-1.4-.9-.4-.4-.7-.9-.9-1.4-.2-.5-.3-1.1-.3-1.8s.1-1.2.3-1.8c.2-.5.5-1,.9-1.4.4-.4.9-.7,1.4-.9s1.2-.3,1.8-.3,1.3.1,1.8.3,1,.5,1.4.9c.4.4.7.9.9,1.4s.3,1.1.3,1.8ZM57.2,214.2c0-.5,0-.9-.2-1.2-.1-.4-.3-.7-.5-.9-.2-.3-.5-.4-.8-.6s-.7-.2-1.1-.2-.8,0-1.1.2c-.3.1-.6.3-.8.6s-.4.6-.5.9c-.1.4-.2.8-.2,1.2s0,.9.2,1.2c.1.4.3.7.5.9s.5.4.8.6c.3.1.7.2,1.1.2s.8,0,1.1-.2.6-.3.8-.6c.2-.3.4-.6.5-.9.1-.4.2-.8.2-1.2Z"/>
    <path class="cls-2" d="M64,217.1c.3,0,.6,0,.8-.1.2,0,.4-.2.6-.4.2-.2.3-.4.4-.7s.1-.5.1-.9v-5.2h1.8v5.2c0,.5,0,1-.3,1.5-.2.4-.4.8-.7,1.1-.3.3-.7.6-1.2.8s-1,.3-1.5.3-1.1,0-1.5-.3-.8-.4-1.2-.8-.6-.7-.7-1.1c-.2-.4-.3-.9-.3-1.5v-5.2h1.8v5.2c0,.3,0,.6.1.9s.2.5.4.7c.2.2.4.3.6.4s.5.1.8.1Z"/>
    <path class="cls-2" d="M76.5,218.6h-1.6c-.3,0-.5-.1-.7-.3l-1.7-2.7c0-.1-.1-.2-.2-.2s-.2,0-.4,0h-.6v3.3h-1.8v-8.7h2.7c.6,0,1.1,0,1.6.2s.8.3,1.1.5c.3.2.5.5.6.8.1.3.2.7.2,1s0,.6-.1.8c0,.3-.2.5-.4.7-.2.2-.3.4-.6.6s-.5.3-.8.4c.1,0,.2.1.3.2,0,0,.2.2.3.3l2,3.1ZM72.2,214c.3,0,.5,0,.8-.1.2,0,.4-.2.5-.3.1-.1.2-.3.3-.5s0-.4,0-.6c0-.4-.1-.7-.4-1-.3-.2-.7-.3-1.3-.3h-.9v2.8h.9Z"/>
    <path class="cls-2" d="M83.3,209.9c.6,0,1.1,0,1.5.2.4.1.8.3,1.1.6.3.2.5.5.6.9.1.3.2.7.2,1.1s0,.8-.2,1.2c-.1.4-.4.7-.6.9-.3.3-.6.5-1.1.6-.4.1-.9.2-1.5.2h-1.1v3h-1.8v-8.7h2.9ZM83.3,214.2c.6,0,1-.1,1.2-.4.3-.3.4-.6.4-1.1s0-.4,0-.6c0-.2-.2-.3-.3-.5s-.3-.2-.5-.3c-.2,0-.4-.1-.7-.1h-1.1v3h1.1Z"/>
    <path class="cls-2" d="M94.9,218.6h-1.6c-.3,0-.5-.1-.7-.3l-1.7-2.7c0-.1-.1-.2-.2-.2s-.2,0-.4,0h-.6v3.3h-1.8v-8.7h2.7c.6,0,1.1,0,1.6.2s.8.3,1.1.5c.3.2.5.5.6.8.1.3.2.7.2,1s0,.6-.1.8c0,.3-.2.5-.4.7-.2.2-.3.4-.6.6s-.5.3-.8.4c.1,0,.2.1.3.2,0,0,.2.2.3.3l2,3.1ZM90.7,214c.3,0,.5,0,.8-.1.2,0,.4-.2.5-.3.1-.1.2-.3.3-.5s0-.4,0-.6c0-.4-.1-.7-.4-1-.3-.2-.7-.3-1.3-.3h-.9v2.8h.9Z"/>
    <path class="cls-2" d="M104.1,214.2c0,.6-.1,1.2-.3,1.8s-.5,1-.9,1.4c-.4.4-.9.7-1.4.9-.5.2-1.2.3-1.8.3s-1.3-.1-1.8-.3c-.5-.2-1-.5-1.4-.9-.4-.4-.7-.9-.9-1.4-.2-.5-.3-1.1-.3-1.8s.1-1.2.3-1.8c.2-.5.5-1,.9-1.4.4-.4.9-.7,1.4-.9s1.2-.3,1.8-.3,1.3.1,1.8.3,1,.5,1.4.9c.4.4.7.9.9,1.4s.3,1.1.3,1.8ZM102.3,214.2c0-.5,0-.9-.2-1.2-.1-.4-.3-.7-.5-.9-.2-.3-.5-.4-.8-.6s-.7-.2-1.1-.2-.8,0-1.1.2c-.3.1-.6.3-.8.6s-.4.6-.5.9c-.1.4-.2.8-.2,1.2s0,.9.2,1.2c.1.4.3.7.5.9s.5.4.8.6c.3.1.7.2,1.1.2s.8,0,1.1-.2.6-.3.8-.6c.2-.3.4-.6.5-.9.1-.4.2-.8.2-1.2Z"/>
    <path class="cls-2" d="M109.8,214.1h3v3.6c-.4.3-.9.6-1.4.7s-1,.2-1.6.2-1.4-.1-1.9-.3c-.6-.2-1.1-.5-1.5-.9-.4-.4-.7-.9-1-1.4-.2-.5-.3-1.1-.3-1.8s.1-1.2.3-1.8c.2-.5.5-1,.9-1.4.4-.4.9-.7,1.4-.9.6-.2,1.2-.3,1.9-.3s.7,0,1,0,.6.1.9.2c.3.1.5.2.7.4.2.1.4.3.6.5l-.5.8c0,.1-.2.2-.3.2-.1,0-.3,0-.4,0-.1,0-.3-.2-.4-.2-.1,0-.3-.1-.4-.2-.2,0-.3,0-.5-.1-.2,0-.4,0-.6,0-.4,0-.8,0-1.1.2-.3.1-.6.3-.8.6-.2.3-.4.6-.5.9-.1.4-.2.8-.2,1.2s0,.9.2,1.3c.1.4.3.7.6,1,.2.3.5.5.9.6.3.1.7.2,1.2.2s.5,0,.8,0c.2,0,.4-.1.7-.2v-1.5h-1c-.1,0-.2,0-.3,0,0,0,0-.1,0-.2v-1Z"/>
    <path class="cls-2" d="M121.3,218.6h-1.6c-.3,0-.5-.1-.7-.3l-1.7-2.7c0-.1-.1-.2-.2-.2s-.2,0-.4,0h-.6v3.3h-1.8v-8.7h2.7c.6,0,1.1,0,1.6.2s.8.3,1.1.5c.3.2.5.5.6.8.1.3.2.7.2,1s0,.6-.1.8c0,.3-.2.5-.4.7-.2.2-.3.4-.6.6s-.5.3-.8.4c.1,0,.2.1.3.2,0,0,.2.2.3.3l2,3.1ZM117.1,214c.3,0,.5,0,.8-.1.2,0,.4-.2.5-.3.1-.1.2-.3.3-.5s0-.4,0-.6c0-.4-.1-.7-.4-1-.3-.2-.7-.3-1.3-.3h-.9v2.8h.9Z"/>
    <path class="cls-2" d="M124,211.3v2.2h2.9v1.4h-2.9v2.3h3.7v1.4h-5.5v-8.7h5.5v1.4h-3.7Z"/>
    <path class="cls-2" d="M133.9,211.5c0,0-.1.2-.2.2s-.1,0-.2,0-.2,0-.3,0c-.1,0-.2-.1-.4-.2-.1,0-.3-.1-.5-.2-.2,0-.4,0-.6,0-.4,0-.7,0-.9.3s-.3.4-.3.7,0,.4.2.5c.1.1.3.2.5.3s.4.2.6.2c.2,0,.5.2.7.2.2,0,.5.2.7.3s.4.3.6.4c.2.2.3.4.4.6.1.3.2.6.2.9s0,.8-.2,1.1c-.1.3-.3.6-.6.9-.3.3-.6.5-1,.6-.4.1-.8.2-1.3.2s-.6,0-.8,0c-.3,0-.5-.1-.8-.2-.3-.1-.5-.2-.7-.4s-.4-.3-.6-.5l.5-.9c0,0,.1-.1.2-.2,0,0,.1,0,.2,0s.2,0,.3.1.3.2.4.3c.2,0,.3.2.5.3s.5.1.7.1c.4,0,.7,0,1-.3.2-.2.3-.5.3-.9s0-.4-.2-.5c-.1-.1-.3-.2-.4-.3s-.4-.2-.6-.2c-.2,0-.5-.1-.7-.2s-.5-.2-.7-.3c-.2-.1-.4-.3-.6-.4-.2-.2-.3-.4-.4-.7-.1-.3-.2-.6-.2-1s0-.6.2-.9c.1-.3.3-.6.6-.8.2-.2.6-.4.9-.6.4-.1.8-.2,1.2-.2s1,0,1.5.2c.4.2.8.4,1.1.7l-.4.8Z"/>
    <path class="cls-2" d="M140.6,211.5c0,0-.1.2-.2.2s-.1,0-.2,0-.2,0-.3,0c-.1,0-.2-.1-.4-.2-.1,0-.3-.1-.5-.2-.2,0-.4,0-.6,0-.4,0-.7,0-.9.3s-.3.4-.3.7,0,.4.2.5c.1.1.3.2.5.3s.4.2.6.2c.2,0,.5.2.7.2.2,0,.5.2.7.3s.4.3.6.4c.2.2.3.4.4.6.1.3.2.6.2.9s0,.8-.2,1.1c-.1.3-.3.6-.6.9-.3.3-.6.5-1,.6-.4.1-.8.2-1.3.2s-.6,0-.8,0c-.3,0-.5-.1-.8-.2-.3-.1-.5-.2-.7-.4s-.4-.3-.6-.5l.5-.9c0,0,.1-.1.2-.2,0,0,.1,0,.2,0s.2,0,.3.1.3.2.4.3c.2,0,.3.2.5.3s.5.1.7.1c.4,0,.7,0,1-.3.2-.2.3-.5.3-.9s0-.4-.2-.5c-.1-.1-.3-.2-.4-.3s-.4-.2-.6-.2c-.2,0-.5-.1-.7-.2s-.5-.2-.7-.3c-.2-.1-.4-.3-.6-.4-.2-.2-.3-.4-.4-.7-.1-.3-.2-.6-.2-1s0-.6.2-.9c.1-.3.3-.6.6-.8.2-.2.6-.4.9-.6.4-.1.8-.2,1.2-.2s1,0,1.5.2c.4.2.8.4,1.1.7l-.4.8Z"/>
  </g>
  <polygon class="cls-2" points="156.8 214 151.4 218.6 151.4 208.9 156.8 214"/>
</svg>