<?xml version="1.0" encoding="UTF-8"?>
<svg id="Layer_1" data-name="Layer 1" xmlns="http://www.w3.org/2000/svg" version="1.1" viewBox="0 0 300 250">
  <defs>
    <style>
      .cls-1 {
        fill: #003da3;
        stroke-width: 0px;
      }
    </style>
  </defs>
  <g>
    <path class="cls-1" d="M50.6,190.8c.1,0,.3,0,.4.1s.1.2.1.3v.8h-5v-.5c0,0,0-.2,0-.3s0-.2.2-.3l2.1-2.2c.2-.2.3-.4.5-.5.1-.2.3-.3.3-.5,0-.2.2-.3.2-.5,0-.2,0-.3,0-.5,0-.3,0-.6-.2-.7-.2-.2-.4-.3-.7-.3s-.3,0-.4,0c-.1,0-.2,0-.3.2,0,0-.2.1-.2.2,0,0-.1.2-.1.3,0,.2-.1.3-.2.3-.1,0-.2,0-.4,0h-.7c0-.5.2-.8.3-1.1.1-.3.3-.5.6-.7.2-.2.5-.3.8-.4.3,0,.6-.1.9-.1s.7,0,.9.2c.3.1.5.2.7.4.2.2.4.4.5.7s.2.5.2.8,0,.5-.1.7-.2.4-.3.6-.3.4-.5.6-.4.4-.5.6l-1.5,1.6c.2,0,.3,0,.5-.1s.3,0,.5,0h1.6Z"/>
    <path class="cls-1" d="M57.4,188.4c0,.6,0,1.2-.2,1.7s-.3.9-.6,1.2c-.2.3-.5.5-.9.7-.3.1-.7.2-1.1.2s-.7,0-1.1-.2-.6-.4-.8-.7-.4-.7-.6-1.2c-.1-.5-.2-1-.2-1.7s0-1.2.2-1.6c.1-.5.3-.8.6-1.2.2-.3.5-.5.8-.7s.7-.2,1.1-.2.7,0,1.1.2c.3.1.6.4.9.7.2.3.4.7.6,1.2s.2,1,.2,1.6ZM56,188.4c0-.5,0-.9-.1-1.3,0-.3-.2-.6-.3-.8s-.3-.3-.4-.4-.3-.1-.5-.1-.3,0-.5.1c-.1,0-.3.2-.4.4-.1.2-.2.5-.3.8,0,.3-.1.8-.1,1.3s0,.9.1,1.3c0,.3.2.6.3.8.1.2.2.3.4.4.1,0,.3.1.5.1s.3,0,.5-.1c.2,0,.3-.2.4-.4s.2-.5.3-.8c0-.3.1-.8.1-1.3Z"/>
    <path class="cls-1" d="M63,191v1h-4.1v-1h1.4v-4c0,0,0-.2,0-.3s0-.2,0-.3l-1,.8c0,0-.1,0-.2,0,0,0-.1,0-.2,0,0,0-.1,0-.1,0s0,0-.1,0l-.4-.6,2.2-1.9h1.1v6.2h1.3Z"/>
    <path class="cls-1" d="M69.1,189.3v.8c0,0,0,.1,0,.2,0,0-.1,0-.2,0h-.6v1.7h-1.2v-1.7h-3c0,0-.2,0-.2,0s-.1-.1-.1-.2v-.7c-.1,0,3.3-4.6,3.3-4.6h1.3v4.5h.8ZM67.1,189.3v-2.2c0-.1,0-.2,0-.4,0-.1,0-.3,0-.4l-2.1,2.9h2Z"/>
    <path class="cls-1" d="M72.5,186c0,0-.1,0-.2,0,0,0-.1,0-.2,0,.1,0,.2,0,.4.1l.8.5-.3.5-.8-.5c0,0-.1,0-.2-.1,0,0,0,0-.1-.1,0,.1,0,.2,0,.4v.9h-.7v-.9c0,0,0-.1,0-.2,0,0,0-.1,0-.2,0,0-.2.2-.3.2l-.8.4-.3-.5.8-.4c0,0,.1,0,.2,0,0,0,.1,0,.2,0,0,0-.1,0-.2,0,0,0-.1,0-.2,0l-.8-.5.3-.5.8.5c.1,0,.2.1.3.2,0-.1,0-.2,0-.4v-.9h.7v.9c0,0,0,.1,0,.2,0,0,0,.1,0,.2,0,0,0,0,.1-.1,0,0,.1,0,.2-.1l.8-.4.3.5-.8.4Z"/>
  </g>
  <g>
    <path class="cls-1" d="M228.8,193.4h-1.2c-.2,0-.3,0-.5,0-.1,0-.3-.1-.4-.3l-1-1.1c-.3,0-.7.1-1,.1-.6,0-1.1,0-1.5-.3-.5-.2-.8-.4-1.2-.8-.3-.3-.6-.7-.8-1.2-.2-.5-.3-.9-.3-1.5s0-1,.3-1.5c.2-.5.4-.8.8-1.2.3-.3.7-.6,1.2-.8.5-.2,1-.3,1.5-.3s1.1,0,1.5.3c.5.2.8.4,1.2.8.3.3.6.7.8,1.2.2.5.3.9.3,1.5s0,.6,0,.9c0,.3-.2.6-.3.8-.1.3-.3.5-.5.7-.2.2-.4.4-.6.6l1.8,2ZM222.6,188.4c0,.4,0,.7.2,1,0,.3.2.6.4.8s.4.4.7.5c.3.1.6.2.9.2s.6,0,.9-.2c.3-.1.5-.3.7-.5.2-.2.3-.5.4-.8.1-.3.2-.6.2-1s0-.7-.2-1c0-.3-.2-.6-.4-.8-.2-.2-.4-.4-.7-.5s-.6-.2-.9-.2-.6,0-.9.2c-.3.1-.5.3-.7.5-.2.2-.3.5-.4.8-.1.3-.2.6-.2,1Z"/>
    <path class="cls-1" d="M234.8,189.3v.8c0,0,0,.1,0,.2,0,0-.1,0-.2,0h-.6v1.7h-1.2v-1.7h-3c0,0-.2,0-.2,0,0,0-.1-.1-.1-.2v-.7c-.1,0,3.3-4.6,3.3-4.6h1.3v4.5h.8ZM232.8,189.3v-2.2c0-.1,0-.2,0-.4,0-.1,0-.3,0-.4l-2.1,2.9h2Z"/>
    <path class="cls-1" d="M242.8,190.8c.1,0,.3,0,.4.1s.1.2.1.3v.8h-5v-.5c0,0,0-.2,0-.3,0-.1,0-.2.2-.3l2.2-2.2c.2-.2.3-.4.5-.5.1-.2.3-.3.3-.5,0-.2.2-.3.2-.5s0-.3,0-.5c0-.3,0-.6-.2-.7-.2-.2-.4-.3-.7-.3s-.3,0-.4,0c-.1,0-.2,0-.3.2,0,0-.2.1-.2.2,0,0-.1.2-.1.3,0,.2-.1.3-.2.3-.1,0-.2,0-.4,0h-.7c0-.5.2-.8.3-1.1.1-.3.3-.5.6-.7.2-.2.5-.3.8-.4.3,0,.6-.1.9-.1s.7,0,.9.2c.3.1.5.2.7.4.2.2.4.4.5.7.1.3.2.5.2.8s0,.5-.1.7c0,.2-.2.4-.3.6s-.3.4-.5.6c-.2.2-.4.4-.5.6l-1.5,1.6c.2,0,.3,0,.5-.1.2,0,.3,0,.5,0h1.6Z"/>
    <path class="cls-1" d="M249.6,188.4c0,.6,0,1.2-.2,1.7s-.3.9-.6,1.2-.5.5-.9.7-.7.2-1.1.2-.7,0-1.1-.2c-.3-.1-.6-.4-.8-.7-.2-.3-.4-.7-.6-1.2-.1-.5-.2-1-.2-1.7s0-1.2.2-1.6c.1-.5.3-.8.6-1.2.2-.3.5-.5.8-.7.3-.1.7-.2,1.1-.2s.7,0,1.1.2.6.4.9.7c.2.3.4.7.6,1.2s.2,1,.2,1.6ZM248.2,188.4c0-.5,0-.9-.1-1.3,0-.3-.2-.6-.3-.8-.1-.2-.3-.3-.4-.4-.2,0-.3-.1-.5-.1s-.3,0-.5.1c-.1,0-.3.2-.4.4s-.2.5-.3.8c0,.3-.1.8-.1,1.3s0,.9.1,1.3c0,.3.2.6.3.8s.2.3.4.4c.1,0,.3.1.5.1s.3,0,.5-.1c.2,0,.3-.2.4-.4.1-.2.2-.5.3-.8,0-.3.1-.8.1-1.3Z"/>
    <path class="cls-1" d="M255,190.8c.2,0,.3,0,.4.1s.1.2.1.3v.8h-5v-.5c0,0,0-.2,0-.3,0-.1,0-.2.2-.3l2.1-2.2c.2-.2.3-.4.5-.5.1-.2.3-.3.3-.5,0-.2.2-.3.2-.5,0-.2,0-.3,0-.5,0-.3,0-.6-.2-.7-.2-.2-.4-.3-.7-.3s-.3,0-.4,0c-.1,0-.2,0-.3.2,0,0-.2.1-.2.2,0,0-.1.2-.1.3,0,.2-.1.3-.2.3s-.2,0-.4,0h-.7c0-.5.2-.8.3-1.1s.3-.5.5-.7.5-.3.8-.4c.3,0,.6-.1.9-.1s.7,0,.9.2c.3.1.5.2.7.4s.4.4.5.7c.1.3.2.5.2.8s0,.5-.1.7c0,.2-.2.4-.3.6s-.3.4-.5.6c-.2.2-.4.4-.5.6l-1.5,1.6c.2,0,.3,0,.5-.1.2,0,.3,0,.5,0h1.6Z"/>
    <path class="cls-1" d="M261.5,189.3v.8c0,0,0,.1,0,.2,0,0-.1,0-.2,0h-.6v1.7h-1.2v-1.7h-3c0,0-.2,0-.2,0,0,0-.1-.1-.1-.2v-.7c-.1,0,3.3-4.6,3.3-4.6h1.3v4.5h.8ZM259.5,189.3v-2.2c0-.1,0-.2,0-.4,0-.1,0-.3,0-.4l-2.1,2.9h2Z"/>
    <path class="cls-1" d="M264.9,186c0,0-.1,0-.2,0,0,0-.1,0-.2,0,.1,0,.2,0,.4.1l.8.5-.3.5-.8-.5c0,0-.1,0-.2-.1s0,0-.1-.1c0,.1,0,.2,0,.4v.9h-.7v-.9c0,0,0-.1,0-.2,0,0,0-.1,0-.2,0,0-.2.2-.3.2l-.8.4-.3-.5.8-.4c0,0,.1,0,.2,0,0,0,.1,0,.2,0,0,0-.1,0-.2,0,0,0-.1,0-.2,0l-.8-.5.3-.5.8.5c.1,0,.2.1.3.2,0-.1,0-.2,0-.4v-.9h.7v.9c0,0,0,.1,0,.2,0,0,0,.1,0,.2,0,0,0,0,.1-.1,0,0,.1,0,.2-.1l.8-.4.3.5-.8.4Z"/>
    <path class="cls-1" d="M269.4,186c0,0-.1,0-.2,0,0,0-.1,0-.2,0,.1,0,.2,0,.4.1l.8.5-.3.5-.8-.5c0,0-.1,0-.2-.1s0,0-.1-.1c0,.1,0,.2,0,.4v.9h-.7v-.9c0,0,0-.1,0-.2,0,0,0-.1,0-.2,0,0-.2.2-.3.2l-.8.4-.3-.5.8-.4c0,0,.1,0,.2,0,0,0,.1,0,.2,0,0,0-.1,0-.2,0,0,0-.1,0-.2,0l-.8-.5.3-.5.8.5c.1,0,.2.1.3.2,0-.1,0-.2,0-.4v-.9h.7v.9c0,0,0,.1,0,.2,0,0,0,.1,0,.2,0,0,0,0,.1-.1,0,0,.1,0,.2-.1l.8-.4.3.5-.8.4Z"/>
  </g>
</svg>