<?xml version="1.0" encoding="UTF-8"?>
<svg id="Layer_1" data-name="Layer 1" xmlns="http://www.w3.org/2000/svg" version="1.1" viewBox="0 0 300 250">
  <defs>
    <style>
      .cls-1 {
        fill: #000;
        stroke-width: 0px;
      }
    </style>
  </defs>
  <g>
    <path class="cls-1" d="M26.843,192.24v5.828h-1.192v-3.352c0-.077.002-.161.006-.252.004-.091.011-.183.022-.276l-1.548,2.996c-.048.094-.112.164-.194.212s-.174.072-.278.072h-.184c-.104,0-.197-.024-.278-.072-.082-.048-.146-.118-.194-.212l-1.548-3.004c.008.096.015.189.02.282.005.092.008.177.008.254v3.352h-1.192v-5.828h1.032c.059,0,.11.002.154.004.044.003.083.011.118.024s.066.034.094.062c.028.027.055.067.082.117l1.5,2.956c.053.102.104.207.154.316.049.109.096.222.142.336.045-.117.093-.232.142-.344.049-.112.102-.219.158-.32l1.496-2.944c.026-.05.054-.09.082-.117.028-.028.06-.049.094-.062s.074-.021.118-.024c.044-.002.095-.004.154-.004h1.032Z"/>
    <path class="cls-1" d="M33.358,198.068h-1.048c-.118,0-.212-.027-.284-.082-.072-.055-.126-.124-.164-.21l-.344-1.016h-2.216l-.344,1.016c-.029.075-.082.143-.158.202-.076.061-.17.09-.282.09h-1.056l2.256-5.828h1.384l2.256,5.828ZM31.21,195.841l-.54-1.597c-.04-.101-.083-.22-.128-.357s-.091-.286-.136-.446c-.04.163-.083.313-.128.452s-.088.259-.128.36l-.536,1.588h1.596Z"/>
    <path class="cls-1" d="M36.134,195.853v2.216h-1.352v-2.216l-2.112-3.612h1.192c.117,0,.21.027.278.082.068.055.125.125.17.21l.824,1.696c.069.134.132.258.188.374s.105.23.148.342c.04-.114.086-.229.138-.346.052-.116.112-.239.182-.37l.816-1.696c.019-.034.041-.069.068-.104.027-.035.058-.066.094-.094.036-.028.077-.051.124-.068.047-.018.098-.026.154-.026h1.2l-2.112,3.612Z"/>
    <path class="cls-1" d="M41.294,197.001c.181,0,.343-.03.486-.091.143-.06.263-.146.362-.258.098-.111.174-.248.226-.41.052-.161.078-.344.078-.55v-3.452h1.352v3.452c0,.357-.058.686-.174.984-.116.299-.282.556-.498.771-.216.217-.479.385-.788.504-.31.12-.657.181-1.044.181-.39,0-.739-.061-1.048-.181-.31-.119-.572-.287-.788-.504-.216-.216-.381-.473-.496-.771s-.172-.627-.172-.984v-3.452h1.352v3.448c0,.205.026.389.078.55.052.162.127.299.226.412s.219.2.362.26c.143.061.305.091.486.091Z"/>
    <path class="cls-1" d="M51.566,192.24v5.828h-1.192v-3.352c0-.077.002-.161.006-.252.004-.091.011-.183.022-.276l-1.548,2.996c-.048.094-.112.164-.194.212s-.174.072-.278.072h-.184c-.104,0-.197-.024-.278-.072-.082-.048-.146-.118-.194-.212l-1.548-3.004c.008.096.015.189.02.282.005.092.008.177.008.254v3.352h-1.192v-5.828h1.032c.059,0,.11.002.154.004.044.003.083.011.118.024s.066.034.094.062c.028.027.055.067.082.117l1.5,2.956c.053.102.104.207.154.316.049.109.096.222.142.336.045-.117.093-.232.142-.344.049-.112.102-.219.158-.32l1.496-2.944c.026-.05.054-.09.082-.117.028-.028.06-.049.094-.062s.074-.021.118-.024c.044-.002.095-.004.154-.004h1.032Z"/>
    <path class="cls-1" d="M54.214,198.068h-1.36v-5.828h1.36v5.828Z"/>
  </g>
  <g>
    <path class="cls-1" d="M22.813,205.934c0,.334-.042.634-.124.897-.082.265-.203.488-.363.671s-.357.322-.591.42c-.234.097-.502.146-.806.146-.276,0-.557-.039-.844-.117.006-.08.013-.16.021-.239.008-.08.015-.158.021-.236.005-.047.023-.086.052-.115s.074-.044.136-.044c.05,0,.116.013.198.038s.193.037.332.037c.184,0,.348-.027.493-.083.145-.056.266-.142.363-.259.097-.117.172-.267.223-.449.052-.183.078-.398.078-.649v-3.934h.81v3.917Z"/>
    <path class="cls-1" d="M23.759,204.368c.234-.226.486-.395.756-.506s.569-.167.898-.167c.237,0,.447.039.63.117.184.078.338.187.464.325.125.14.22.308.284.506.064.197.096.415.096.651v2.706h-.33c-.072,0-.128-.012-.167-.036-.039-.023-.069-.07-.092-.14l-.083-.4c-.111.103-.22.193-.326.273-.106.079-.217.146-.334.2-.117.055-.242.096-.374.125-.132.029-.279.044-.44.044-.164,0-.319-.022-.463-.068-.145-.046-.271-.115-.378-.207-.107-.092-.192-.208-.255-.349-.062-.141-.094-.307-.094-.499,0-.167.046-.328.138-.482s.241-.292.447-.411c.206-.12.475-.218.806-.295.331-.076.737-.12,1.219-.131v-.33c0-.328-.071-.577-.213-.745-.142-.169-.35-.253-.623-.253-.184,0-.337.022-.461.069-.124.046-.231.097-.321.154-.09.057-.168.108-.234.154s-.13.068-.194.068c-.05,0-.093-.013-.129-.039s-.067-.06-.092-.099l-.134-.237ZM26.16,206.097c-.342.011-.634.038-.875.081-.241.044-.437.1-.589.169-.151.07-.262.152-.33.247-.068.095-.103.2-.103.317,0,.111.018.207.054.288.036.08.086.146.148.198s.136.089.221.112c.085.024.176.036.273.036.131,0,.251-.014.359-.04s.211-.064.307-.115c.096-.05.188-.109.276-.179.087-.07.173-.149.257-.238v-.877Z"/>
    <path class="cls-1" d="M28.574,204.427c.178-.221.384-.397.618-.531.234-.133.501-.2.802-.2.245,0,.466.047.664.14.198.094.366.231.505.414s.246.408.321.679c.075.27.113.58.113.931,0,.312-.042.603-.125.871s-.204.501-.361.697-.35.351-.576.463c-.227.113-.482.17-.766.17-.259,0-.481-.044-.667-.132-.185-.088-.349-.21-.49-.365v1.87h-.748v-5.662h.447c.105,0,.171.052.196.154l.067.502ZM28.611,206.981c.136.185.285.313.447.389.161.075.342.113.542.113.396,0,.699-.141.911-.422.211-.281.317-.683.317-1.203,0-.275-.024-.512-.073-.71-.049-.197-.119-.359-.211-.486s-.205-.219-.338-.277c-.133-.059-.285-.088-.455-.088-.242,0-.455.056-.637.167s-.35.269-.503.472v2.046Z"/>
    <path class="cls-1" d="M32.281,204.368c.234-.226.486-.395.756-.506s.569-.167.898-.167c.237,0,.447.039.63.117.184.078.338.187.464.325.125.14.22.308.284.506.064.197.096.415.096.651v2.706h-.33c-.072,0-.128-.012-.167-.036-.039-.023-.069-.07-.092-.14l-.083-.4c-.111.103-.22.193-.326.273-.106.079-.217.146-.334.2-.117.055-.242.096-.374.125-.132.029-.279.044-.44.044-.164,0-.319-.022-.463-.068-.145-.046-.271-.115-.378-.207-.107-.092-.192-.208-.255-.349-.062-.141-.094-.307-.094-.499,0-.167.046-.328.138-.482s.241-.292.447-.411c.206-.12.475-.218.806-.295.331-.076.737-.12,1.219-.131v-.33c0-.328-.071-.577-.213-.745-.142-.169-.35-.253-.623-.253-.184,0-.337.022-.461.069-.124.046-.231.097-.321.154-.09.057-.168.108-.234.154s-.13.068-.194.068c-.05,0-.093-.013-.129-.039s-.067-.06-.092-.099l-.134-.237ZM34.683,206.097c-.342.011-.634.038-.875.081-.241.044-.437.1-.589.169-.151.07-.262.152-.33.247-.068.095-.103.2-.103.317,0,.111.018.207.054.288.036.08.086.146.148.198s.136.089.221.112c.085.024.176.036.273.036.131,0,.251-.014.359-.04s.211-.064.307-.115c.096-.05.188-.109.276-.179.087-.07.173-.149.257-.238v-.877Z"/>
    <path class="cls-1" d="M37.088,204.385c.092-.104.189-.196.292-.28.103-.083.212-.155.328-.215.115-.06.238-.105.367-.138s.27-.048.42-.048c.231,0,.435.038.611.114.177.077.325.186.443.326s.208.31.27.507c.061.198.092.417.092.656v2.693h-.748v-2.693c0-.32-.073-.568-.219-.746-.146-.177-.368-.265-.666-.265-.22,0-.425.053-.616.158-.19.106-.367.25-.528.431v3.115h-.748v-4.23h.447c.105,0,.171.052.196.154l.059.46Z"/>
    <path class="cls-1" d="M23.811,212.952c-.025.042-.052.073-.082.094-.029.021-.065.031-.106.031-.047,0-.103-.023-.167-.07-.064-.048-.144-.1-.24-.157-.096-.057-.211-.108-.347-.156-.135-.047-.298-.071-.491-.071-.181,0-.34.024-.478.073s-.253.115-.347.198c-.093.084-.164.182-.211.295-.047.112-.071.234-.071.365,0,.167.041.306.123.415.082.11.191.204.326.282.135.078.288.146.459.202.171.058.347.116.526.178.179.062.355.13.526.207.171.076.324.173.459.29.135.117.244.26.326.43s.123.379.123.627c0,.262-.044.507-.133.736-.089.23-.219.43-.391.6s-.381.304-.63.401c-.25.097-.533.146-.85.146-.39,0-.743-.07-1.061-.211s-.589-.33-.814-.569l.234-.385c.022-.03.049-.057.082-.077s.067-.031.106-.031c.036,0,.077.015.123.044.046.029.098.066.157.11.059.045.125.094.201.146s.161.102.257.146c.096.044.205.081.328.11s.26.044.414.044c.192,0,.363-.026.513-.08.15-.053.278-.127.382-.223.104-.097.185-.211.24-.345s.083-.282.083-.447c0-.181-.041-.329-.124-.444-.082-.115-.19-.212-.323-.29-.134-.078-.287-.145-.459-.198-.173-.055-.348-.11-.526-.167-.178-.058-.354-.123-.526-.198-.173-.075-.326-.173-.459-.293-.134-.119-.242-.27-.324-.448-.082-.18-.123-.402-.123-.666,0-.212.041-.417.123-.614s.202-.373.359-.526c.157-.152.351-.275.581-.367.229-.092.493-.138.791-.138.334,0,.638.053.913.158.274.106.516.259.725.46l-.196.384Z"/>
    <path class="cls-1" d="M30.656,213.771l-1.37,4.23h-.589c-.072,0-.123-.048-.15-.143l-.935-2.868c-.022-.064-.041-.129-.055-.194-.014-.065-.028-.13-.042-.194-.014.064-.028.129-.042.194-.014.065-.032.132-.054.198l-.952,2.864c-.025.095-.081.143-.167.143h-.56l-1.37-4.23h.584c.059,0,.108.016.148.046.041.031.067.067.082.108l.81,2.723c.047.201.085.39.113.568.025-.092.051-.186.077-.28.026-.094.055-.19.085-.288l.894-2.739c.014-.041.039-.076.073-.104.035-.027.077-.041.127-.041h.326c.056,0,.102.014.138.041.036.028.062.063.075.104l.873,2.739c.03.098.058.194.083.288.025.095.048.188.071.28.014-.092.031-.185.052-.277.021-.094.044-.19.069-.291l.827-2.723c.014-.044.041-.081.08-.11.039-.029.085-.044.138-.044h.56Z"/>
    <path class="cls-1" d="M32.163,212.442c0,.073-.015.141-.044.203s-.068.118-.117.167-.105.087-.171.114c-.065.028-.134.042-.207.042-.072,0-.14-.014-.202-.042-.063-.027-.118-.065-.165-.114s-.085-.104-.113-.167-.042-.13-.042-.203c0-.072.014-.141.042-.206s.065-.123.113-.172c.047-.048.102-.087.165-.114.062-.028.13-.042.202-.042.073,0,.142.014.207.042.065.027.122.066.171.114.049.049.088.106.117.172s.044.134.044.206ZM32.004,213.771v4.23h-.744v-4.23h.744Z"/>
    <path class="cls-1" d="M34.336,218.067c-.334,0-.591-.093-.77-.279-.18-.187-.27-.455-.27-.807v-2.589h-.509c-.045,0-.083-.013-.113-.039-.031-.026-.046-.067-.046-.123v-.297l.693-.088.171-1.307c.008-.042.027-.076.056-.103.029-.026.068-.04.115-.04h.375v1.458h1.224v.538h-1.224v2.539c0,.179.043.311.129.396.086.087.198.13.334.13.078,0,.145-.011.202-.031.057-.021.106-.044.148-.069.042-.024.077-.048.106-.068.029-.021.055-.031.077-.031.039,0,.074.023.104.07l.217.355c-.128.119-.283.214-.464.281-.181.068-.367.103-.56.103Z"/>
    <path class="cls-1" d="M38.741,214.522c-.022.03-.044.054-.067.071-.022.017-.053.024-.092.024-.042,0-.088-.018-.138-.052-.05-.035-.112-.073-.186-.115s-.164-.08-.271-.114c-.107-.035-.239-.053-.395-.053-.208,0-.393.037-.551.11-.159.074-.292.181-.398.32-.107.139-.188.308-.242.505-.055.197-.082.419-.082.664,0,.256.029.483.087.683.059.199.142.366.249.501.107.135.237.238.389.309.151.071.322.107.511.107.181,0,.33-.022.447-.065.117-.043.214-.091.291-.144.076-.053.14-.102.192-.145.051-.043.103-.064.152-.064.061,0,.108.023.142.071l.209.271c-.092.113-.196.211-.313.292-.117.081-.243.148-.378.202-.135.055-.276.094-.424.119s-.298.038-.451.038c-.265,0-.51-.049-.737-.146s-.424-.238-.591-.424-.298-.413-.393-.683c-.095-.271-.142-.578-.142-.923,0-.314.044-.605.132-.873.087-.268.216-.497.384-.691.168-.193.375-.344.622-.452.246-.109.529-.163.85-.163.298,0,.56.048.787.144.227.097.428.232.604.407l-.196.268Z"/>
    <path class="cls-1" d="M40.354,214.334c.181-.191.381-.345.601-.459s.473-.171.76-.171c.231,0,.435.038.611.114.177.077.325.186.443.326s.208.31.27.507c.061.198.092.417.092.656v2.693h-.748v-2.693c0-.32-.073-.568-.219-.746-.146-.177-.368-.265-.666-.265-.22,0-.425.053-.616.158-.19.106-.367.25-.528.431v3.115h-.748v-6.151h.748v2.484Z"/>
    <path class="cls-1" d="M47.551,217.408c-.092.111-.202.208-.33.29s-.265.149-.411.202c-.146.053-.297.093-.453.119-.156.026-.311.04-.464.04-.292,0-.562-.05-.808-.148-.247-.099-.459-.244-.639-.435s-.319-.427-.419-.708c-.101-.281-.15-.604-.15-.969,0-.295.045-.57.136-.826.09-.257.221-.479.39-.666.17-.188.377-.336.623-.443.245-.106.521-.16.827-.16.253,0,.488.042.704.127s.402.208.56.367c.157.16.28.358.37.594.089.235.133.503.133.804,0,.117-.012.194-.038.233-.025.039-.072.059-.142.059h-2.827c.008.268.045.5.111.697.065.198.156.363.273.495.117.132.256.231.417.296.162.066.342.099.543.099.187,0,.347-.021.482-.064.135-.043.251-.09.349-.141.097-.05.179-.097.244-.14s.122-.064.169-.064c.061,0,.109.023.142.071l.209.271ZM46.949,215.424c0-.172-.024-.33-.073-.474-.048-.144-.12-.268-.213-.371-.093-.104-.207-.186-.34-.242-.133-.058-.285-.086-.455-.086-.356,0-.638.104-.846.311-.207.208-.336.495-.386.862h2.313Z"/>
    <path class="cls-1" d="M51.9,211.85v6.151h-.442c-.106,0-.173-.052-.201-.154l-.066-.514c-.181.217-.387.393-.618.525-.231.134-.499.201-.802.201-.242,0-.462-.047-.66-.141-.198-.093-.366-.229-.505-.411-.139-.181-.247-.406-.322-.677-.075-.27-.113-.58-.113-.931,0-.312.042-.602.125-.871.083-.269.203-.501.359-.699.156-.197.348-.353.574-.466.227-.112.482-.169.767-.169.259,0,.48.044.666.132.185.088.35.209.495.365v-2.343h.743ZM51.157,214.777c-.139-.187-.29-.317-.451-.391-.161-.074-.342-.11-.542-.11-.393,0-.695.141-.906.421-.211.281-.317.683-.317,1.203,0,.275.023.512.071.708s.117.357.209.484c.092.126.205.219.338.277.133.059.285.088.455.088.245,0,.458-.056.641-.167.182-.111.35-.269.503-.472v-2.042Z"/>
    <path class="cls-1" d="M55.98,218.067c-.334,0-.591-.093-.77-.279-.18-.187-.27-.455-.27-.807v-2.589h-.509c-.045,0-.083-.013-.113-.039-.031-.026-.046-.067-.046-.123v-.297l.693-.088.171-1.307c.008-.042.027-.076.056-.103.029-.026.068-.04.115-.04h.375v1.458h1.224v.538h-1.224v2.539c0,.179.043.311.129.396.086.087.198.13.334.13.078,0,.145-.011.202-.031.057-.021.106-.044.148-.069.042-.024.077-.048.106-.068.029-.021.055-.031.077-.031.039,0,.074.023.104.07l.217.355c-.128.119-.283.214-.464.281-.181.068-.367.103-.56.103Z"/>
    <path class="cls-1" d="M59.22,213.704c.309,0,.587.052.835.154.248.103.459.249.635.438s.31.418.403.687.14.569.14.9c0,.334-.047.635-.14.901-.093.268-.228.496-.403.686s-.387.335-.635.437c-.248.102-.526.152-.835.152-.312,0-.592-.051-.841-.152s-.461-.247-.637-.437-.31-.418-.403-.686c-.093-.267-.14-.567-.14-.901,0-.331.047-.632.14-.9s.228-.497.403-.687.388-.336.637-.438.53-.154.841-.154ZM59.22,217.479c.418,0,.729-.14.936-.419.206-.28.309-.671.309-1.172,0-.504-.103-.896-.309-1.178s-.518-.422-.936-.422c-.211,0-.396.036-.553.109-.157.072-.288.177-.393.312-.104.137-.182.305-.233.504-.052.198-.078.424-.078.674,0,.501.104.892.311,1.172.208.279.523.419.946.419Z"/>
    <path class="cls-1" d="M63.667,214.368c.234-.226.486-.395.756-.506s.569-.167.898-.167c.237,0,.447.039.63.117.184.078.338.187.464.325.125.14.22.308.284.506.064.197.096.415.096.651v2.706h-.33c-.072,0-.128-.012-.167-.036-.039-.023-.069-.07-.092-.14l-.083-.4c-.111.103-.22.193-.326.273-.106.079-.217.146-.334.2-.117.055-.242.096-.374.125-.132.029-.279.044-.44.044-.164,0-.319-.022-.463-.068-.145-.046-.271-.115-.378-.207-.107-.092-.192-.208-.255-.349-.062-.141-.094-.307-.094-.499,0-.167.046-.328.138-.482s.241-.292.447-.411c.206-.12.475-.218.806-.295.331-.076.737-.12,1.219-.131v-.33c0-.328-.071-.577-.213-.745-.142-.169-.35-.253-.623-.253-.184,0-.337.022-.461.069-.124.046-.231.097-.321.154-.09.057-.168.108-.234.154s-.13.068-.194.068c-.05,0-.093-.013-.129-.039s-.067-.06-.092-.099l-.134-.237ZM66.069,216.097c-.342.011-.634.038-.875.081-.241.044-.437.1-.589.169-.151.07-.262.152-.33.247-.068.095-.103.2-.103.317,0,.111.018.207.054.288.036.08.086.146.148.198s.136.089.221.112c.085.024.176.036.273.036.131,0,.251-.014.359-.04s.211-.064.307-.115c.096-.05.188-.109.276-.179.087-.07.173-.149.257-.238v-.877Z"/>
    <path class="cls-1" d="M21.322,224.38c.178-.205.379-.37.603-.492s.482-.184.775-.184c.248,0,.471.047.67.142.199.095.368.231.507.411s.246.397.32.654c.074.256.11.544.11.864,0,.342-.042.654-.125.935-.083.281-.204.521-.361.721s-.349.354-.574.464c-.226.109-.479.165-.76.165-.279,0-.513-.053-.704-.157-.191-.104-.357-.252-.499-.444l-.038.384c-.022.106-.086.159-.192.159h-.48v-6.151h.748v2.53ZM21.322,226.981c.136.185.286.313.449.389.163.075.342.113.537.113.398,0,.703-.141.915-.422.211-.281.317-.7.317-1.257,0-.519-.094-.898-.282-1.143-.188-.243-.456-.365-.804-.365-.242,0-.453.056-.632.167-.18.111-.346.269-.499.472v2.046Z"/>
    <path class="cls-1" d="M28.566,227.408c-.092.111-.202.208-.33.29s-.265.149-.411.202c-.146.053-.297.093-.453.119-.156.026-.311.04-.464.04-.292,0-.562-.05-.808-.148-.247-.099-.459-.244-.639-.435s-.319-.427-.419-.708c-.101-.281-.15-.604-.15-.969,0-.295.045-.57.136-.826.09-.257.221-.479.39-.666.17-.188.377-.336.623-.443.245-.106.521-.16.827-.16.253,0,.488.042.704.127s.402.208.56.367c.157.16.28.358.37.594.089.235.133.503.133.804,0,.117-.012.194-.038.233-.025.039-.072.059-.142.059h-2.827c.008.268.045.5.111.697.065.198.156.363.273.495.117.132.256.231.417.296.162.066.342.099.543.099.187,0,.347-.021.482-.064.135-.043.251-.09.349-.141.097-.05.179-.097.244-.14s.122-.064.169-.064c.061,0,.109.023.142.071l.209.271ZM27.965,225.424c0-.172-.024-.33-.073-.474-.048-.144-.12-.268-.213-.371-.093-.104-.207-.186-.34-.242-.133-.058-.285-.086-.455-.086-.356,0-.638.104-.846.311-.207.208-.336.495-.386.862h2.313Z"/>
    <path class="cls-1" d="M30.683,228.067c-.334,0-.591-.093-.77-.279-.18-.187-.27-.455-.27-.807v-2.589h-.509c-.045,0-.083-.013-.113-.039-.031-.026-.046-.067-.046-.123v-.297l.693-.088.171-1.307c.008-.042.027-.076.056-.103.029-.026.068-.04.115-.04h.375v1.458h1.992l.171-1.315c.008-.042.027-.076.057-.103s.067-.04.115-.04h.375v1.458h1.224v.538h-1.224v2.539c0,.179.044.311.132.396.087.087.198.13.332.13.078,0,.146-.011.203-.031.057-.021.106-.044.148-.069.042-.024.077-.048.106-.068.029-.021.055-.031.077-.031.042,0,.077.023.104.07l.221.355c-.131.119-.287.214-.467.281-.181.068-.368.103-.56.103-.332,0-.587-.093-.769-.279s-.271-.455-.271-.807v-2.589h-1.967v2.539c0,.179.043.311.129.396.086.087.198.13.334.13.078,0,.145-.011.202-.031.057-.021.106-.044.148-.069.042-.024.077-.048.106-.068.029-.021.055-.031.077-.031.039,0,.074.023.104.07l.217.355c-.128.119-.283.214-.464.281-.181.068-.367.103-.56.103Z"/>
    <path class="cls-1" d="M38.315,227.408c-.092.111-.202.208-.33.29s-.265.149-.411.202c-.146.053-.297.093-.453.119-.156.026-.311.04-.464.04-.292,0-.562-.05-.808-.148-.247-.099-.459-.244-.639-.435s-.319-.427-.419-.708c-.101-.281-.15-.604-.15-.969,0-.295.045-.57.136-.826.09-.257.221-.479.39-.666.17-.188.377-.336.623-.443.245-.106.521-.16.827-.16.253,0,.488.042.704.127s.402.208.56.367c.157.16.28.358.37.594.089.235.133.503.133.804,0,.117-.012.194-.038.233-.025.039-.072.059-.142.059h-2.827c.008.268.045.5.111.697.065.198.156.363.273.495.117.132.256.231.417.296.162.066.342.099.543.099.187,0,.347-.021.482-.064.135-.043.251-.09.349-.141.097-.05.179-.097.244-.14s.122-.064.169-.064c.061,0,.109.023.142.071l.209.271ZM37.713,225.424c0-.172-.024-.33-.073-.474-.048-.144-.12-.268-.213-.371-.093-.104-.207-.186-.34-.242-.133-.058-.285-.086-.455-.086-.356,0-.638.104-.846.311-.207.208-.336.495-.386.862h2.313Z"/>
    <path class="cls-1" d="M39.855,224.618c.134-.289.298-.516.493-.679.195-.162.433-.244.714-.244.089,0,.174.01.257.029.082.02.155.05.219.092l-.055.556c-.017.069-.058.104-.125.104-.039,0-.096-.009-.171-.025s-.16-.024-.255-.024c-.133,0-.252.019-.357.058-.104.039-.198.097-.28.174-.082.076-.156.171-.221.284-.065.112-.125.241-.177.386v2.673h-.748v-4.23h.426c.081,0,.136.016.167.046.031.031.052.084.062.159l.05.643Z"/>
    <path class="cls-1" d="M43.684,224.368c.234-.226.486-.395.756-.506s.569-.167.898-.167c.237,0,.447.039.63.117.184.078.338.187.464.325.125.14.22.308.284.506.064.197.096.415.096.651v2.706h-.33c-.072,0-.128-.012-.167-.036-.039-.023-.069-.07-.092-.14l-.083-.4c-.111.103-.22.193-.326.273-.106.079-.217.146-.334.2-.117.055-.242.096-.374.125-.132.029-.279.044-.44.044-.164,0-.319-.022-.463-.068-.145-.046-.271-.115-.378-.207-.107-.092-.192-.208-.255-.349-.062-.141-.094-.307-.094-.499,0-.167.046-.328.138-.482s.241-.292.447-.411c.206-.12.475-.218.806-.295.331-.076.737-.12,1.219-.131v-.33c0-.328-.071-.577-.213-.745-.142-.169-.35-.253-.623-.253-.184,0-.337.022-.461.069-.124.046-.231.097-.321.154-.09.057-.168.108-.234.154s-.13.068-.194.068c-.05,0-.093-.013-.129-.039s-.067-.06-.092-.099l-.134-.237ZM46.085,226.097c-.342.011-.634.038-.875.081-.241.044-.437.1-.589.169-.151.07-.262.152-.33.247-.068.095-.103.2-.103.317,0,.111.018.207.054.288.036.08.086.146.148.198s.136.089.221.112c.085.024.176.036.273.036.131,0,.251-.014.359-.04s.211-.064.307-.115c.096-.05.188-.109.276-.179.087-.07.173-.149.257-.238v-.877Z"/>
    <path class="cls-1" d="M48.547,221.85v6.151h-.743v-6.151h.743Z"/>
    <path class="cls-1" d="M50.871,228.067c-.334,0-.591-.093-.77-.279-.18-.187-.27-.455-.27-.807v-2.589h-.509c-.045,0-.083-.013-.113-.039-.031-.026-.046-.067-.046-.123v-.297l.693-.088.171-1.307c.008-.042.027-.076.056-.103.029-.026.068-.04.115-.04h.375v1.458h1.224v.538h-1.224v2.539c0,.179.043.311.129.396.086.087.198.13.334.13.078,0,.145-.011.202-.031.057-.021.106-.044.148-.069.042-.024.077-.048.106-.068.029-.021.055-.031.077-.031.039,0,.074.023.104.07l.217.355c-.128.119-.283.214-.464.281-.181.068-.367.103-.56.103Z"/>
    <path class="cls-1" d="M55.769,227.408c-.092.111-.202.208-.33.29s-.265.149-.411.202c-.146.053-.297.093-.453.119-.156.026-.311.04-.464.04-.292,0-.562-.05-.808-.148-.247-.099-.459-.244-.639-.435s-.319-.427-.419-.708c-.101-.281-.15-.604-.15-.969,0-.295.045-.57.136-.826.09-.257.221-.479.39-.666.17-.188.377-.336.623-.443.245-.106.521-.16.827-.16.253,0,.488.042.704.127s.402.208.56.367c.157.16.28.358.37.594.089.235.133.503.133.804,0,.117-.012.194-.038.233-.025.039-.072.059-.142.059h-2.827c.008.268.045.5.111.697.065.198.156.363.273.495.117.132.256.231.417.296.162.066.342.099.543.099.187,0,.347-.021.482-.064.135-.043.251-.09.349-.141.097-.05.179-.097.244-.14s.122-.064.169-.064c.061,0,.109.023.142.071l.209.271ZM55.167,225.424c0-.172-.024-.33-.073-.474-.048-.144-.12-.268-.213-.371-.093-.104-.207-.186-.34-.242-.133-.058-.285-.086-.455-.086-.356,0-.638.104-.846.311-.207.208-.336.495-.386.862h2.313Z"/>
    <path class="cls-1" d="M57.308,224.618c.134-.289.298-.516.493-.679.195-.162.433-.244.714-.244.089,0,.174.01.257.029.082.02.155.05.219.092l-.055.556c-.017.069-.058.104-.125.104-.039,0-.096-.009-.171-.025s-.16-.024-.255-.024c-.133,0-.252.019-.357.058-.104.039-.198.097-.28.174-.082.076-.156.171-.221.284-.065.112-.125.241-.177.386v2.673h-.748v-4.23h.426c.081,0,.136.016.167.046.031.031.052.084.062.159l.05.643Z"/>
    <path class="cls-1" d="M60.234,224.385c.092-.104.189-.196.292-.28.103-.083.212-.155.328-.215.115-.06.238-.105.367-.138s.27-.048.42-.048c.231,0,.435.038.611.114.177.077.325.186.443.326s.208.31.27.507c.061.198.092.417.092.656v2.693h-.748v-2.693c0-.32-.073-.568-.219-.746-.146-.177-.368-.265-.666-.265-.22,0-.425.053-.616.158-.19.106-.367.25-.528.431v3.115h-.748v-4.23h.447c.105,0,.171.052.196.154l.059.46Z"/>
    <path class="cls-1" d="M63.912,224.368c.234-.226.486-.395.756-.506s.569-.167.898-.167c.237,0,.447.039.63.117.184.078.338.187.464.325.125.14.22.308.284.506.064.197.096.415.096.651v2.706h-.33c-.072,0-.128-.012-.167-.036-.039-.023-.069-.07-.092-.14l-.083-.4c-.111.103-.22.193-.326.273-.106.079-.217.146-.334.2-.117.055-.242.096-.374.125-.132.029-.279.044-.44.044-.164,0-.319-.022-.463-.068-.145-.046-.271-.115-.378-.207-.107-.092-.192-.208-.255-.349-.062-.141-.094-.307-.094-.499,0-.167.046-.328.138-.482s.241-.292.447-.411c.206-.12.475-.218.806-.295.331-.076.737-.12,1.219-.131v-.33c0-.328-.071-.577-.213-.745-.142-.169-.35-.253-.623-.253-.184,0-.337.022-.461.069-.124.046-.231.097-.321.154-.09.057-.168.108-.234.154s-.13.068-.194.068c-.05,0-.093-.013-.129-.039s-.067-.06-.092-.099l-.134-.237ZM66.313,226.097c-.342.011-.634.038-.875.081-.241.044-.437.1-.589.169-.151.07-.262.152-.33.247-.068.095-.103.2-.103.317,0,.111.018.207.054.288.036.08.086.146.148.198s.136.089.221.112c.085.024.176.036.273.036.131,0,.251-.014.359-.04s.211-.064.307-.115c.096-.05.188-.109.276-.179.087-.07.173-.149.257-.238v-.877Z"/>
    <path class="cls-1" d="M71.89,228.001h-.744v-3.608h-2.18v2.539c0,.179.043.311.129.396.086.087.198.13.334.13.078,0,.145-.011.202-.031.057-.021.106-.044.148-.069.042-.024.077-.048.106-.068.029-.021.055-.031.077-.031.039,0,.074.023.104.07l.217.355c-.128.119-.283.214-.464.281-.181.068-.367.103-.56.103-.334,0-.591-.093-.77-.279-.18-.187-.27-.455-.27-.807v-2.589h-.509c-.045,0-.083-.013-.113-.039-.031-.026-.046-.067-.046-.123v-.297l.693-.092.171-1.303c.008-.042.027-.076.056-.103.029-.026.068-.04.115-.04h.375v1.458h2.923v4.146ZM72.074,222.414c0,.072-.015.14-.044.202s-.068.117-.117.165c-.049.047-.105.085-.169.112-.064.028-.132.042-.205.042s-.14-.014-.202-.042c-.063-.027-.118-.065-.165-.112-.047-.048-.085-.103-.113-.165s-.042-.13-.042-.202c0-.073.014-.142.042-.207s.065-.123.113-.171c.047-.049.102-.088.165-.115.062-.028.13-.042.202-.042s.141.014.205.042c.064.027.121.066.169.115.048.048.087.105.117.171s.044.134.044.207Z"/>
    <path class="cls-1" d="M76.6,223.771l-1.725,4.23h-.668l-1.725-4.23h.605c.061,0,.111.016.15.046.039.031.065.067.079.108l1.073,2.723c.033.104.062.203.088.301.025.098.048.195.071.293.022-.098.046-.195.071-.293.025-.098.056-.197.092-.301l1.086-2.723c.017-.044.044-.081.083-.11s.085-.044.138-.044h.581Z"/>
    <path class="cls-1" d="M80.45,227.408c-.092.111-.202.208-.33.29s-.265.149-.411.202c-.146.053-.297.093-.453.119-.156.026-.311.04-.464.04-.292,0-.562-.05-.808-.148-.247-.099-.459-.244-.639-.435s-.319-.427-.419-.708c-.101-.281-.15-.604-.15-.969,0-.295.045-.57.136-.826.09-.257.221-.479.39-.666.17-.188.377-.336.623-.443.245-.106.521-.16.827-.16.253,0,.488.042.704.127s.402.208.56.367c.157.16.28.358.37.594.089.235.133.503.133.804,0,.117-.012.194-.038.233-.025.039-.072.059-.142.059h-2.827c.008.268.045.5.111.697.065.198.156.363.273.495.117.132.256.231.417.296.162.066.342.099.543.099.187,0,.347-.021.482-.064.135-.043.251-.09.349-.141.097-.05.179-.097.244-.14s.122-.064.169-.064c.061,0,.109.023.142.071l.209.271ZM79.848,225.424c0-.172-.024-.33-.073-.474-.048-.144-.12-.268-.213-.371-.093-.104-.207-.186-.34-.242-.133-.058-.285-.086-.455-.086-.356,0-.638.104-.846.311-.207.208-.336.495-.386.862h2.313Z"/>
  </g>
</svg>